<mxfile host="app.diagrams.net" agent="Mozilla/5.0 (Windows NT 10.0; Win64; x64; rv:138.0) Gecko/20100101 Firefox/138.0" version="26.2.14" pages="2">
  <diagram name="Page-1" id="TwMNZOQFvsDsJ47Fs0zQ">
    <mxGraphModel dx="2153" dy="680" grid="1" gridSize="10" guides="1" tooltips="1" connect="1" arrows="1" fold="1" page="1" pageScale="1" pageWidth="850" pageHeight="1100" math="0" shadow="0">
      <root>
        <mxCell id="0" />
        <mxCell id="1" parent="0" />
        <mxCell id="5TXN5MjjEc4FPBZ4lVX2-1" value="" style="shape=image;verticalLabelPosition=bottom;labelBackgroundColor=default;verticalAlign=top;aspect=fixed;imageAspect=0;image=data:image/png,iVBORw0KGgoAAAANSUhEUgAAASwAAACoCAMAAABt9SM9AAABdFBMVEX///////3//f+fzf////uZm50AByRCYK2MiYzZ2tn9//9DZrNCZKswKi7p6OY5U5MAEztCaL0BGEIAAAArQXSSjo9vbXUPI0hCZ7c9Zcg5ZcNAZ8EQJk4xSYQxSoHh4OUmLDAYER8rJS338vWDfoMkJCgAABYvQ306OECiz/s7NkMAABAAAB2hzP9KSEkAEy10jaiixeQAGESp1P4UGyV7e3snOkkjIy+cnZkAFziqqKmEho3MycqZ0P/2//YfK04VGCkbGxt/lq+WvN5/oMJgXl84U5jDxsAAAC0OCjUrLy1CYJswT3QDFSQ/Y9YlQGIHHDg1TXsgIzpzcGh+f47o5do7W64jNmEVH1MZLGF/gnxeZG0tQYK/trh4cXMUEQ1CPTtTU1McJSF7iatbaYN2hpad0vSmy+IwOU0kMkRXUVc8UGlHWHFZd5yPrs8YJDgiNVNaZnmVqMHA2PdPWGghMD8FDgMLAAoTJRwAHzaLkojPzcHX/s/ZAAAMk0lEQVR4nO2cjVvayBaHJyFiEmgoIgpYiNuAmipINqXKl4qK9era0tptd9cFdddu0Vptdbu9u/efv+dMgiL4UVv6cG+YVxjyBe38njNnzplJhhAGg8FgMBgMBoPBYDAYDAaDwWAwGAwGg8FgMBgMBoPBYDAYDAaDwWD0AjJ98xyn5fo6R67Ac92uWeeRZYGTZZ4XHtcDY2736uqqe2zS/TVMbUyt/sv96RfNiWpZYklr93xeb/9LoN/b/xXA1+H76z+4892uWeehljXH87mNWDgciUTCX8uTJ1j6159O892uW8cBsYgwJ/NixRuO+L1erycUCnm+ghG/JzQSDnueTandrlvHkWUOxOL4/HB/BMxhfvjeFzGMWOXw/KtYKBKKOVMsXp4TSH7gZdg/+HyoNvSVbG5upqa9kZHYmDPFIoJARBDr5U8viAB92Bd3Y/Z31YWVcDjqRLE4DuIGgReHQ5H+70WBwt0a4Qye59UZECs26UCxBBALglKx4hnxDogcVLYwO4tx5ey1WLEn3cCicTinQHz741oMxVK6XbfOg5YFH8GKJ+L9Pk94/kX27sDd25JFKtPZ6VGJCCDWSCQWcKBY4KV4yHeCVjMkXGEstvLSiixvAcQc3nUgVilrRBmNRSKOtCzw7s1ikeDd9ZDf74GAC/B+bnSFob+//2U4PJ5QiJKIgmU50GddIpY39OzV8C259xPw869+fyyhgmVRsRxuWQMglghizT94Eadk4p/JL5l4Jr9V8XmfoVgJZ4vFnVmWeLfff/cF4Qn6ffn8Mt5+N/Z4Yr8QK3SQ6uMesCxeuQ9iRR0rFk+C2UYz/N7jz+YhpJAhbUTmZLgEYnwUBK+GUsZ93JSJHV1BbCsI6oNf/b5GM4yCz4KYy1nZNEakPDZDf9j2WVQsrCcPUZfG89WgpvFaWSUaCebghFKT4FxfHwgh1TR6ISQCIJvyYNwTtcSKOM+y0KQssXhohuEzB+/Oo8VwtOAEcUfhOClQANtaq0FcJm1XIWYvl+FcLqBYEbws87KsPPg1ZFkWxFnRjb5cA63bFe0IUq1M2SrvzL88F2saxeIwccSLxBRUFsUiZKcGbkwqVeFMuQwnq1bkCWbFo1gTZ5YFYj0MnFHtaiU7hbS7e0BfuzvzDcvKUrFkHD6VNRWIpyRVLQRyqqrd2VJgM5GD8qAMp/oCBSgV9Hs8B2INemINy4qNVQsNul3NDqEpmqJomqYEh/vP4yzwWQK6d2krkSglPn2CohQoWZtYlhIJuvnbX3B0ZmZ0lubP4ODHQ9GzZjjmMJ9FwT6uKc5qFiv1MX0TvwN7k+j3CYrlbxJLdeCMRVOc1RBrWkSxOKn02tTtPyyskn7SI3oSdpK6bhwPEdmyLL/jLetKsR4u6i7d5bKLM3TX+a7uKuqn+yhWm2X1jFgciEVUFMvlahYqmXTpSTAmV9LWSi8W/3jzqNbTlgViEUuspOtKkigdFStDMLrtVbGI8DguxjfS5tVSWWqBXi6jPhEURWWuN8XKxokQnNjZ2VgEsYo3qZU06zOpnQmpRy1rFUMHRSs0fNZVFIvUiRmPhmRIH3tCLI6/JM7iZAK9ITRD6s2TtAPUbXcPB3R6vFjEbhLFwsS7B5ohx2EuTUSM4Jt8Fg8OHsRqxAzomly2WMki7mG3aPeIxj4VS1Anxv2+pqC021XrPLZYwYFmseKEVwqF6sPFVgcPDQ/EAqWK9GWJaOyXpUJBm2sRyxljDedAYghgehgf9ly0rEygVILeULcVsqVCrSyxLM+PYkEzfFgqfVeYUy6ItVDL2PR1u5odgS9DdlxK3C/9lrg/32xZecKDreTAssAxWf2h3Qbhk7ZBKhb1YuCz9g8K7Za1AD+NJErlbtezM+SCgCgG/wkeXLCsPPosTHdMSxPTWDLQyGDDwKQQAWeGmw2fBY35omU5cioMELA3bGmGjdyQKpR++/Rw0dDNvcPDw720YZwuv0O9jvaOUDOjXrZ6Q8eLddYbtorFC7ZY5lF98u3hvvudYbiP6+8rU++NN3vzSyDW4uoy2Bu1LK29N3Ri6CDwl4rVl0qlNmjoYL5deG2Yxt4705j+89RYSlf23uy9N8ykuTi9DJk0WFZiN3Wg9kToYN9y1OKzcuVaGYNSMKypD6d6EZudkYUt3ai/Pd17v0TFAqcGYj26k6kNqa2hQw+JBUGpgg5eN9NTJwaKBS83iGWeHB+++bC/ZMKZaWyGYFk1QkcdnN8MOasZDrSKJaPPMotF88PxkalbpuX+0zg62XKnT7c+LhX108XsMvaH+n4NfVbPWFaLWPAp8zQ3LEIXeLykF1Er01h4OOUem3qnG2BZIKMllo5ikXaxesiyFFUp0KDU3MuiWEU0oel6Op0+gWMfjpeKLnTwNPqqlxVV7VnLyhNtKBAIbCzi7ETanbaaYVHPHp6appkEAStLetJ87aahg17fhosL8hViydf++/9XNMRqCR2IWq3mqIOHPvCpcWqeHqVNI7t3iiMzLjM9tgiH/oQGCqGDub/7uFptS6TVpttsHAINSrlLglI6RINigWm9PTl6Xa8YxjSGDtAkzZOpR4sn6alDK98Bn9U+RDOl8haaQwTTJEUBd6NIarwldMD7F2yxQK3K2OpY/cQ03HuYLBZN6Aj/dk+OvV2yUun6JgFJWhPp3bJNrdvV7AyZwPb29qdP23+VSvOeC+NZRNZssUCMU2P59+Ul6BmP0NXTMVPjaDG9bOjWWOl+TdA00ipWqoFDRh0KQYvZ4MFwyxBNX7m8ixMWdPDYQAtDk0J/nkwm0VGZSV2nIYXLrN8plw9aI/hJSbFx2ihg+6hDbihjpTsuGmPh20UDUzqabI0HWiPzEMHvYLpDfVa0edSBt+62dIjPIlck0vnmUYdmLu4XbSPb37xkwsKZQzSXhw7n41nXTIVRsXTjcrEcHMFfGjp8lljg4DdJ+/R9z4gVJ7yUy83SqbBroDOKNCit5nJar4oF6Q5EFaXJGyzLEgvTHQhACr0qlkhnyQoPb7gxBO+xoUM0ZU1Re9Zn5RsTFlZQqjdm7lu0ssTSsTckPNejluWmExZ0PEu/jj90vEFLpw6+7Wa2XhELHbxtWdeKZTdDtCy5Ryzr0htDBJlw6ugH4waWsDhZEFGsuYu3djsxKEW41nQHn7DAp5+2Pz66jv06ZSGlglgC5obnYsXGnJYbSlWLx9WhlkQaDY6XCyKQGo3nxUxgSIyLiYm8KA6VyvG4OAGb+a3JTD6fmVU4GVLAuYu54QI+apBYW1tLrHW7mp0hc/Z4zaf5drHsiy4+u8MT6U4V7ymp8QQfdLIeNrzkoYEp0RrREIPOuIuGKBKiwrvWYllW/Tkc6RRTCk/F4m2xSlU4Vy7D+VxApcMKHI4ft4rlQAePgBm1+yx8eg6f0JSDKU2WQSxZJqkMJNhS4jEcHRqC/WqAPm+Ia5W1OXhHToUJF2ekxQticSCLoqBkkty2yfGaZLdV+AUIHZqfCnOkWMIl0/fuvP2oYeOp3qblU9BBCfZ6Khye4PB5JnzLaFnOFuuyoHT4gyrhk4aq1Mz57sXjZ2erz6O9crfyuVj+p5Xjmc8lkUjQcmZm9Plz78iKo8XCbo+KFYp4KyjWtDfs9UV9USSGnz7c9iFReph++PBw4zLr2mdRX79/ZUblrLVoHJjucA2xBkJh798g1uyn9fCI/7bAN0Lw8np/nlBw4Z6IIxfuwfDAtqwn/bhEgfLvymD0C4jFsHjlzsvCj6PRcLgXxNL4HzdH79ya+/ZnKohRBYrlzFGHhlie8Do0Qw12lK8AQwlbLAeOOpyLFVn/+x9IXuiaFrddxo7INNqneSKKFXHkMnYQOlCxIN0J97/flaS28OoWWN9Ucws+py42JtOgNJgNPYn4shsbC8B3Xwb95oI7uzrvDY84WSwx6wmHR/p9sZjvS1ixyhVr2zsSjjxzYG9I1zdHy4LAPRIOR0ZGIvC+LRH4kt9Py5EIhGnhJ5HBgEMGSJvBPJiTSWHqB68fav1lYlH8VgEGCjHqyr16t2v2DbD6Mp5kJl8Ndobx8cHBp5WPTlmupxkqFiG81jdxvxOMUn4r/0dw4FI0llZ04TGtg8Cvdbli3xBcie5a6ArK+L7hOkLoLzlttb8WZKEj2L8jyw56VqAN7oaVzZtSm2t/BeeEBDp439H/3v8UHJ1V7Rzdrs+35OZUucV9XZ1uW6uT0tUoHQp139dyrsaNbgtaIC7y6mixOoM11yg728EzGAwGg8FgMBgMBoPBYDAYDAaDwWAwGAwGg8FgMBgMBoPBYDAYjB7ivwdpDjvk48HXAAAAAElFTkSuQmCC;" vertex="1" parent="1">
          <mxGeometry x="-110" y="20" width="196.44" height="110" as="geometry" />
        </mxCell>
        <mxCell id="alSkmWKgk6mWW5NlKqTc-2" value="" style="shape=image;verticalLabelPosition=bottom;labelBackgroundColor=default;verticalAlign=top;aspect=fixed;imageAspect=0;image=data:image/png,iVBORw0KGgoAAAANSUhEUgAAASwAAACoCAMAAABt9SM9AAABdFBMVEX///////3//f+fzf////uZm50AByRCYK2MiYzZ2tn9//9DZrNCZKswKi7p6OY5U5MAEztCaL0BGEIAAAArQXSSjo9vbXUPI0hCZ7c9Zcg5ZcNAZ8EQJk4xSYQxSoHh4OUmLDAYER8rJS338vWDfoMkJCgAABYvQ306OECiz/s7NkMAABAAAB2hzP9KSEkAEy10jaiixeQAGESp1P4UGyV7e3snOkkjIy+cnZkAFziqqKmEho3MycqZ0P/2//YfK04VGCkbGxt/lq+WvN5/oMJgXl84U5jDxsAAAC0OCjUrLy1CYJswT3QDFSQ/Y9YlQGIHHDg1TXsgIzpzcGh+f47o5do7W64jNmEVH1MZLGF/gnxeZG0tQYK/trh4cXMUEQ1CPTtTU1McJSF7iatbaYN2hpad0vSmy+IwOU0kMkRXUVc8UGlHWHFZd5yPrs8YJDgiNVNaZnmVqMHA2PdPWGghMD8FDgMLAAoTJRwAHzaLkojPzcHX/s/ZAAAMk0lEQVR4nO2cjVvayBaHJyFiEmgoIgpYiNuAmipINqXKl4qK9era0tptd9cFdddu0Vptdbu9u/efv+dMgiL4UVv6cG+YVxjyBe38njNnzplJhhAGg8FgMBgMBoPBYDAYDAaDwWAwGAwGg8FgMBgMBoPBYDAYDAaDwWD0AjJ98xyn5fo6R67Ac92uWeeRZYGTZZ4XHtcDY2736uqqe2zS/TVMbUyt/sv96RfNiWpZYklr93xeb/9LoN/b/xXA1+H76z+4892uWeehljXH87mNWDgciUTCX8uTJ1j6159O892uW8cBsYgwJ/NixRuO+L1erycUCnm+ghG/JzQSDnueTandrlvHkWUOxOL4/HB/BMxhfvjeFzGMWOXw/KtYKBKKOVMsXp4TSH7gZdg/+HyoNvSVbG5upqa9kZHYmDPFIoJARBDr5U8viAB92Bd3Y/Z31YWVcDjqRLE4DuIGgReHQ5H+70WBwt0a4Qye59UZECs26UCxBBALglKx4hnxDogcVLYwO4tx5ey1WLEn3cCicTinQHz741oMxVK6XbfOg5YFH8GKJ+L9Pk94/kX27sDd25JFKtPZ6VGJCCDWSCQWcKBY4KV4yHeCVjMkXGEstvLSiixvAcQc3nUgVilrRBmNRSKOtCzw7s1ikeDd9ZDf74GAC/B+bnSFob+//2U4PJ5QiJKIgmU50GddIpY39OzV8C259xPw869+fyyhgmVRsRxuWQMglghizT94Eadk4p/JL5l4Jr9V8XmfoVgJZ4vFnVmWeLfff/cF4Qn6ffn8Mt5+N/Z4Yr8QK3SQ6uMesCxeuQ9iRR0rFk+C2UYz/N7jz+YhpJAhbUTmZLgEYnwUBK+GUsZ93JSJHV1BbCsI6oNf/b5GM4yCz4KYy1nZNEakPDZDf9j2WVQsrCcPUZfG89WgpvFaWSUaCebghFKT4FxfHwgh1TR6ISQCIJvyYNwTtcSKOM+y0KQssXhohuEzB+/Oo8VwtOAEcUfhOClQANtaq0FcJm1XIWYvl+FcLqBYEbws87KsPPg1ZFkWxFnRjb5cA63bFe0IUq1M2SrvzL88F2saxeIwccSLxBRUFsUiZKcGbkwqVeFMuQwnq1bkCWbFo1gTZ5YFYj0MnFHtaiU7hbS7e0BfuzvzDcvKUrFkHD6VNRWIpyRVLQRyqqrd2VJgM5GD8qAMp/oCBSgV9Hs8B2INemINy4qNVQsNul3NDqEpmqJomqYEh/vP4yzwWQK6d2krkSglPn2CohQoWZtYlhIJuvnbX3B0ZmZ0lubP4ODHQ9GzZjjmMJ9FwT6uKc5qFiv1MX0TvwN7k+j3CYrlbxJLdeCMRVOc1RBrWkSxOKn02tTtPyyskn7SI3oSdpK6bhwPEdmyLL/jLetKsR4u6i7d5bKLM3TX+a7uKuqn+yhWm2X1jFgciEVUFMvlahYqmXTpSTAmV9LWSi8W/3jzqNbTlgViEUuspOtKkigdFStDMLrtVbGI8DguxjfS5tVSWWqBXi6jPhEURWWuN8XKxokQnNjZ2VgEsYo3qZU06zOpnQmpRy1rFUMHRSs0fNZVFIvUiRmPhmRIH3tCLI6/JM7iZAK9ITRD6s2TtAPUbXcPB3R6vFjEbhLFwsS7B5ohx2EuTUSM4Jt8Fg8OHsRqxAzomly2WMki7mG3aPeIxj4VS1Anxv2+pqC021XrPLZYwYFmseKEVwqF6sPFVgcPDQ/EAqWK9GWJaOyXpUJBm2sRyxljDedAYghgehgf9ly0rEygVILeULcVsqVCrSyxLM+PYkEzfFgqfVeYUy6ItVDL2PR1u5odgS9DdlxK3C/9lrg/32xZecKDreTAssAxWf2h3Qbhk7ZBKhb1YuCz9g8K7Za1AD+NJErlbtezM+SCgCgG/wkeXLCsPPosTHdMSxPTWDLQyGDDwKQQAWeGmw2fBY35omU5cioMELA3bGmGjdyQKpR++/Rw0dDNvcPDw720YZwuv0O9jvaOUDOjXrZ6Q8eLddYbtorFC7ZY5lF98u3hvvudYbiP6+8rU++NN3vzSyDW4uoy2Bu1LK29N3Ri6CDwl4rVl0qlNmjoYL5deG2Yxt4705j+89RYSlf23uy9N8ykuTi9DJk0WFZiN3Wg9kToYN9y1OKzcuVaGYNSMKypD6d6EZudkYUt3ai/Pd17v0TFAqcGYj26k6kNqa2hQw+JBUGpgg5eN9NTJwaKBS83iGWeHB+++bC/ZMKZaWyGYFk1QkcdnN8MOasZDrSKJaPPMotF88PxkalbpuX+0zg62XKnT7c+LhX108XsMvaH+n4NfVbPWFaLWPAp8zQ3LEIXeLykF1Er01h4OOUem3qnG2BZIKMllo5ikXaxesiyFFUp0KDU3MuiWEU0oel6Op0+gWMfjpeKLnTwNPqqlxVV7VnLyhNtKBAIbCzi7ETanbaaYVHPHp6appkEAStLetJ87aahg17fhosL8hViydf++/9XNMRqCR2IWq3mqIOHPvCpcWqeHqVNI7t3iiMzLjM9tgiH/oQGCqGDub/7uFptS6TVpttsHAINSrlLglI6RINigWm9PTl6Xa8YxjSGDtAkzZOpR4sn6alDK98Bn9U+RDOl8haaQwTTJEUBd6NIarwldMD7F2yxQK3K2OpY/cQ03HuYLBZN6Aj/dk+OvV2yUun6JgFJWhPp3bJNrdvV7AyZwPb29qdP23+VSvOeC+NZRNZssUCMU2P59+Ul6BmP0NXTMVPjaDG9bOjWWOl+TdA00ipWqoFDRh0KQYvZ4MFwyxBNX7m8ixMWdPDYQAtDk0J/nkwm0VGZSV2nIYXLrN8plw9aI/hJSbFx2ihg+6hDbihjpTsuGmPh20UDUzqabI0HWiPzEMHvYLpDfVa0edSBt+62dIjPIlck0vnmUYdmLu4XbSPb37xkwsKZQzSXhw7n41nXTIVRsXTjcrEcHMFfGjp8lljg4DdJ+/R9z4gVJ7yUy83SqbBroDOKNCit5nJar4oF6Q5EFaXJGyzLEgvTHQhACr0qlkhnyQoPb7gxBO+xoUM0ZU1Re9Zn5RsTFlZQqjdm7lu0ssTSsTckPNejluWmExZ0PEu/jj90vEFLpw6+7Wa2XhELHbxtWdeKZTdDtCy5Ryzr0htDBJlw6ugH4waWsDhZEFGsuYu3djsxKEW41nQHn7DAp5+2Pz66jv06ZSGlglgC5obnYsXGnJYbSlWLx9WhlkQaDY6XCyKQGo3nxUxgSIyLiYm8KA6VyvG4OAGb+a3JTD6fmVU4GVLAuYu54QI+apBYW1tLrHW7mp0hc/Z4zaf5drHsiy4+u8MT6U4V7ymp8QQfdLIeNrzkoYEp0RrREIPOuIuGKBKiwrvWYllW/Tkc6RRTCk/F4m2xSlU4Vy7D+VxApcMKHI4ft4rlQAePgBm1+yx8eg6f0JSDKU2WQSxZJqkMJNhS4jEcHRqC/WqAPm+Ia5W1OXhHToUJF2ekxQticSCLoqBkkty2yfGaZLdV+AUIHZqfCnOkWMIl0/fuvP2oYeOp3qblU9BBCfZ6Khye4PB5JnzLaFnOFuuyoHT4gyrhk4aq1Mz57sXjZ2erz6O9crfyuVj+p5Xjmc8lkUjQcmZm9Plz78iKo8XCbo+KFYp4KyjWtDfs9UV9USSGnz7c9iFReph++PBw4zLr2mdRX79/ZUblrLVoHJjucA2xBkJh798g1uyn9fCI/7bAN0Lw8np/nlBw4Z6IIxfuwfDAtqwn/bhEgfLvymD0C4jFsHjlzsvCj6PRcLgXxNL4HzdH79ya+/ZnKohRBYrlzFGHhlie8Do0Qw12lK8AQwlbLAeOOpyLFVn/+x9IXuiaFrddxo7INNqneSKKFXHkMnYQOlCxIN0J97/flaS28OoWWN9Ucws+py42JtOgNJgNPYn4shsbC8B3Xwb95oI7uzrvDY84WSwx6wmHR/p9sZjvS1ixyhVr2zsSjjxzYG9I1zdHy4LAPRIOR0ZGIvC+LRH4kt9Py5EIhGnhJ5HBgEMGSJvBPJiTSWHqB68fav1lYlH8VgEGCjHqyr16t2v2DbD6Mp5kJl8Ndobx8cHBp5WPTlmupxkqFiG81jdxvxOMUn4r/0dw4FI0llZ04TGtg8Cvdbli3xBcie5a6ArK+L7hOkLoLzlttb8WZKEj2L8jyw56VqAN7oaVzZtSm2t/BeeEBDp439H/3v8UHJ1V7Rzdrs+35OZUucV9XZ1uW6uT0tUoHQp139dyrsaNbgtaIC7y6mixOoM11yg728EzGAwGg8FgMBgMBoPBYDAYDAaDwWAwGAwGg8FgMBgMBoPBYDAYjB7ivwdpDjvk48HXAAAAAElFTkSuQmCC;" vertex="1" parent="1">
          <mxGeometry x="50" y="20" width="196.44" height="110" as="geometry" />
        </mxCell>
        <mxCell id="alSkmWKgk6mWW5NlKqTc-6" value="" style="shape=image;verticalLabelPosition=bottom;labelBackgroundColor=default;verticalAlign=top;aspect=fixed;imageAspect=0;image=data:image/png,iVBORw0KGgoAAAANSUhEUgAAASwAAACoCAMAAABt9SM9AAABdFBMVEX///////3//f+fzf////uZm50AByRCYK2MiYzZ2tn9//9DZrNCZKswKi7p6OY5U5MAEztCaL0BGEIAAAArQXSSjo9vbXUPI0hCZ7c9Zcg5ZcNAZ8EQJk4xSYQxSoHh4OUmLDAYER8rJS338vWDfoMkJCgAABYvQ306OECiz/s7NkMAABAAAB2hzP9KSEkAEy10jaiixeQAGESp1P4UGyV7e3snOkkjIy+cnZkAFziqqKmEho3MycqZ0P/2//YfK04VGCkbGxt/lq+WvN5/oMJgXl84U5jDxsAAAC0OCjUrLy1CYJswT3QDFSQ/Y9YlQGIHHDg1TXsgIzpzcGh+f47o5do7W64jNmEVH1MZLGF/gnxeZG0tQYK/trh4cXMUEQ1CPTtTU1McJSF7iatbaYN2hpad0vSmy+IwOU0kMkRXUVc8UGlHWHFZd5yPrs8YJDgiNVNaZnmVqMHA2PdPWGghMD8FDgMLAAoTJRwAHzaLkojPzcHX/s/ZAAAMk0lEQVR4nO2cjVvayBaHJyFiEmgoIgpYiNuAmipINqXKl4qK9era0tptd9cFdddu0Vptdbu9u/efv+dMgiL4UVv6cG+YVxjyBe38njNnzplJhhAGg8FgMBgMBoPBYDAYDAaDwWAwGAwGg8FgMBgMBoPBYDAYDAaDwWD0AjJ98xyn5fo6R67Ac92uWeeRZYGTZZ4XHtcDY2736uqqe2zS/TVMbUyt/sv96RfNiWpZYklr93xeb/9LoN/b/xXA1+H76z+4892uWeehljXH87mNWDgciUTCX8uTJ1j6159O892uW8cBsYgwJ/NixRuO+L1erycUCnm+ghG/JzQSDnueTandrlvHkWUOxOL4/HB/BMxhfvjeFzGMWOXw/KtYKBKKOVMsXp4TSH7gZdg/+HyoNvSVbG5upqa9kZHYmDPFIoJARBDr5U8viAB92Bd3Y/Z31YWVcDjqRLE4DuIGgReHQ5H+70WBwt0a4Qye59UZECs26UCxBBALglKx4hnxDogcVLYwO4tx5ey1WLEn3cCicTinQHz741oMxVK6XbfOg5YFH8GKJ+L9Pk94/kX27sDd25JFKtPZ6VGJCCDWSCQWcKBY4KV4yHeCVjMkXGEstvLSiixvAcQc3nUgVilrRBmNRSKOtCzw7s1ikeDd9ZDf74GAC/B+bnSFob+//2U4PJ5QiJKIgmU50GddIpY39OzV8C259xPw869+fyyhgmVRsRxuWQMglghizT94Eadk4p/JL5l4Jr9V8XmfoVgJZ4vFnVmWeLfff/cF4Qn6ffn8Mt5+N/Z4Yr8QK3SQ6uMesCxeuQ9iRR0rFk+C2UYz/N7jz+YhpJAhbUTmZLgEYnwUBK+GUsZ93JSJHV1BbCsI6oNf/b5GM4yCz4KYy1nZNEakPDZDf9j2WVQsrCcPUZfG89WgpvFaWSUaCebghFKT4FxfHwgh1TR6ISQCIJvyYNwTtcSKOM+y0KQssXhohuEzB+/Oo8VwtOAEcUfhOClQANtaq0FcJm1XIWYvl+FcLqBYEbws87KsPPg1ZFkWxFnRjb5cA63bFe0IUq1M2SrvzL88F2saxeIwccSLxBRUFsUiZKcGbkwqVeFMuQwnq1bkCWbFo1gTZ5YFYj0MnFHtaiU7hbS7e0BfuzvzDcvKUrFkHD6VNRWIpyRVLQRyqqrd2VJgM5GD8qAMp/oCBSgV9Hs8B2INemINy4qNVQsNul3NDqEpmqJomqYEh/vP4yzwWQK6d2krkSglPn2CohQoWZtYlhIJuvnbX3B0ZmZ0lubP4ODHQ9GzZjjmMJ9FwT6uKc5qFiv1MX0TvwN7k+j3CYrlbxJLdeCMRVOc1RBrWkSxOKn02tTtPyyskn7SI3oSdpK6bhwPEdmyLL/jLetKsR4u6i7d5bKLM3TX+a7uKuqn+yhWm2X1jFgciEVUFMvlahYqmXTpSTAmV9LWSi8W/3jzqNbTlgViEUuspOtKkigdFStDMLrtVbGI8DguxjfS5tVSWWqBXi6jPhEURWWuN8XKxokQnNjZ2VgEsYo3qZU06zOpnQmpRy1rFUMHRSs0fNZVFIvUiRmPhmRIH3tCLI6/JM7iZAK9ITRD6s2TtAPUbXcPB3R6vFjEbhLFwsS7B5ohx2EuTUSM4Jt8Fg8OHsRqxAzomly2WMki7mG3aPeIxj4VS1Anxv2+pqC021XrPLZYwYFmseKEVwqF6sPFVgcPDQ/EAqWK9GWJaOyXpUJBm2sRyxljDedAYghgehgf9ly0rEygVILeULcVsqVCrSyxLM+PYkEzfFgqfVeYUy6ItVDL2PR1u5odgS9DdlxK3C/9lrg/32xZecKDreTAssAxWf2h3Qbhk7ZBKhb1YuCz9g8K7Za1AD+NJErlbtezM+SCgCgG/wkeXLCsPPosTHdMSxPTWDLQyGDDwKQQAWeGmw2fBY35omU5cioMELA3bGmGjdyQKpR++/Rw0dDNvcPDw720YZwuv0O9jvaOUDOjXrZ6Q8eLddYbtorFC7ZY5lF98u3hvvudYbiP6+8rU++NN3vzSyDW4uoy2Bu1LK29N3Ri6CDwl4rVl0qlNmjoYL5deG2Yxt4705j+89RYSlf23uy9N8ykuTi9DJk0WFZiN3Wg9kToYN9y1OKzcuVaGYNSMKypD6d6EZudkYUt3ai/Pd17v0TFAqcGYj26k6kNqa2hQw+JBUGpgg5eN9NTJwaKBS83iGWeHB+++bC/ZMKZaWyGYFk1QkcdnN8MOasZDrSKJaPPMotF88PxkalbpuX+0zg62XKnT7c+LhX108XsMvaH+n4NfVbPWFaLWPAp8zQ3LEIXeLykF1Er01h4OOUem3qnG2BZIKMllo5ikXaxesiyFFUp0KDU3MuiWEU0oel6Op0+gWMfjpeKLnTwNPqqlxVV7VnLyhNtKBAIbCzi7ETanbaaYVHPHp6appkEAStLetJ87aahg17fhosL8hViydf++/9XNMRqCR2IWq3mqIOHPvCpcWqeHqVNI7t3iiMzLjM9tgiH/oQGCqGDub/7uFptS6TVpttsHAINSrlLglI6RINigWm9PTl6Xa8YxjSGDtAkzZOpR4sn6alDK98Bn9U+RDOl8haaQwTTJEUBd6NIarwldMD7F2yxQK3K2OpY/cQ03HuYLBZN6Aj/dk+OvV2yUun6JgFJWhPp3bJNrdvV7AyZwPb29qdP23+VSvOeC+NZRNZssUCMU2P59+Ul6BmP0NXTMVPjaDG9bOjWWOl+TdA00ipWqoFDRh0KQYvZ4MFwyxBNX7m8ixMWdPDYQAtDk0J/nkwm0VGZSV2nIYXLrN8plw9aI/hJSbFx2ihg+6hDbihjpTsuGmPh20UDUzqabI0HWiPzEMHvYLpDfVa0edSBt+62dIjPIlck0vnmUYdmLu4XbSPb37xkwsKZQzSXhw7n41nXTIVRsXTjcrEcHMFfGjp8lljg4DdJ+/R9z4gVJ7yUy83SqbBroDOKNCit5nJar4oF6Q5EFaXJGyzLEgvTHQhACr0qlkhnyQoPb7gxBO+xoUM0ZU1Re9Zn5RsTFlZQqjdm7lu0ssTSsTckPNejluWmExZ0PEu/jj90vEFLpw6+7Wa2XhELHbxtWdeKZTdDtCy5Ryzr0htDBJlw6ugH4waWsDhZEFGsuYu3djsxKEW41nQHn7DAp5+2Pz66jv06ZSGlglgC5obnYsXGnJYbSlWLx9WhlkQaDY6XCyKQGo3nxUxgSIyLiYm8KA6VyvG4OAGb+a3JTD6fmVU4GVLAuYu54QI+apBYW1tLrHW7mp0hc/Z4zaf5drHsiy4+u8MT6U4V7ymp8QQfdLIeNrzkoYEp0RrREIPOuIuGKBKiwrvWYllW/Tkc6RRTCk/F4m2xSlU4Vy7D+VxApcMKHI4ft4rlQAePgBm1+yx8eg6f0JSDKU2WQSxZJqkMJNhS4jEcHRqC/WqAPm+Ia5W1OXhHToUJF2ekxQticSCLoqBkkty2yfGaZLdV+AUIHZqfCnOkWMIl0/fuvP2oYeOp3qblU9BBCfZ6Khye4PB5JnzLaFnOFuuyoHT4gyrhk4aq1Mz57sXjZ2erz6O9crfyuVj+p5Xjmc8lkUjQcmZm9Plz78iKo8XCbo+KFYp4KyjWtDfs9UV9USSGnz7c9iFReph++PBw4zLr2mdRX79/ZUblrLVoHJjucA2xBkJh798g1uyn9fCI/7bAN0Lw8np/nlBw4Z6IIxfuwfDAtqwn/bhEgfLvymD0C4jFsHjlzsvCj6PRcLgXxNL4HzdH79ya+/ZnKohRBYrlzFGHhlie8Do0Qw12lK8AQwlbLAeOOpyLFVn/+x9IXuiaFrddxo7INNqneSKKFXHkMnYQOlCxIN0J97/flaS28OoWWN9Ucws+py42JtOgNJgNPYn4shsbC8B3Xwb95oI7uzrvDY84WSwx6wmHR/p9sZjvS1ixyhVr2zsSjjxzYG9I1zdHy4LAPRIOR0ZGIvC+LRH4kt9Py5EIhGnhJ5HBgEMGSJvBPJiTSWHqB68fav1lYlH8VgEGCjHqyr16t2v2DbD6Mp5kJl8Ndobx8cHBp5WPTlmupxkqFiG81jdxvxOMUn4r/0dw4FI0llZ04TGtg8Cvdbli3xBcie5a6ArK+L7hOkLoLzlttb8WZKEj2L8jyw56VqAN7oaVzZtSm2t/BeeEBDp439H/3v8UHJ1V7Rzdrs+35OZUucV9XZ1uW6uT0tUoHQp139dyrsaNbgtaIC7y6mixOoM11yg728EzGAwGg8FgMBgMBoPBYDAYDAaDwWAwGAwGg8FgMBgMBoPBYDAYjB7ivwdpDjvk48HXAAAAAElFTkSuQmCC;" vertex="1" parent="1">
          <mxGeometry x="210" y="20" width="196.44" height="110" as="geometry" />
        </mxCell>
        <mxCell id="alSkmWKgk6mWW5NlKqTc-8" value="" style="endArrow=classic;html=1;rounded=0;" edge="1" parent="1">
          <mxGeometry width="50" height="50" relative="1" as="geometry">
            <mxPoint x="-10" y="120" as="sourcePoint" />
            <mxPoint x="-10" y="200" as="targetPoint" />
            <Array as="points">
              <mxPoint x="-10" y="140" />
            </Array>
          </mxGeometry>
        </mxCell>
        <mxCell id="alSkmWKgk6mWW5NlKqTc-9" value="" style="endArrow=classic;html=1;rounded=0;" edge="1" parent="1" source="alSkmWKgk6mWW5NlKqTc-14">
          <mxGeometry width="50" height="50" relative="1" as="geometry">
            <mxPoint x="150" y="120" as="sourcePoint" />
            <mxPoint x="150" y="200" as="targetPoint" />
            <Array as="points">
              <mxPoint x="150" y="140" />
            </Array>
          </mxGeometry>
        </mxCell>
        <mxCell id="alSkmWKgk6mWW5NlKqTc-10" value="" style="endArrow=classic;html=1;rounded=0;" edge="1" parent="1">
          <mxGeometry width="50" height="50" relative="1" as="geometry">
            <mxPoint x="307.72" y="120" as="sourcePoint" />
            <mxPoint x="308" y="190" as="targetPoint" />
            <Array as="points">
              <mxPoint x="307.72" y="140" />
            </Array>
          </mxGeometry>
        </mxCell>
        <mxCell id="alSkmWKgk6mWW5NlKqTc-13" value="&lt;b&gt;processor 1&lt;/b&gt;" style="text;html=1;align=center;verticalAlign=middle;whiteSpace=wrap;rounded=0;" vertex="1" parent="1">
          <mxGeometry x="-45" y="100" width="70" height="30" as="geometry" />
        </mxCell>
        <mxCell id="alSkmWKgk6mWW5NlKqTc-15" value="" style="endArrow=classic;html=1;rounded=0;" edge="1" parent="1" target="alSkmWKgk6mWW5NlKqTc-14">
          <mxGeometry width="50" height="50" relative="1" as="geometry">
            <mxPoint x="150" y="120" as="sourcePoint" />
            <mxPoint x="150" y="200" as="targetPoint" />
            <Array as="points" />
          </mxGeometry>
        </mxCell>
        <mxCell id="alSkmWKgk6mWW5NlKqTc-14" value="&lt;b&gt;processor 2&lt;/b&gt;" style="text;html=1;align=center;verticalAlign=middle;whiteSpace=wrap;rounded=0;" vertex="1" parent="1">
          <mxGeometry x="113.22" y="110" width="70" height="30" as="geometry" />
        </mxCell>
        <mxCell id="alSkmWKgk6mWW5NlKqTc-16" value="&lt;b&gt;processor 3&lt;/b&gt;" style="text;html=1;align=center;verticalAlign=middle;whiteSpace=wrap;rounded=0;" vertex="1" parent="1">
          <mxGeometry x="273.22" y="100" width="70" height="30" as="geometry" />
        </mxCell>
        <mxCell id="alSkmWKgk6mWW5NlKqTc-20" value="" style="whiteSpace=wrap;html=1;aspect=fixed;" vertex="1" parent="1">
          <mxGeometry x="98.22" y="205" width="105" height="105" as="geometry" />
        </mxCell>
        <mxCell id="alSkmWKgk6mWW5NlKqTc-21" value="" style="shape=image;verticalLabelPosition=bottom;labelBackgroundColor=default;verticalAlign=top;aspect=fixed;imageAspect=0;image=data:image/png,iVBORw0KGgoAAAANSUhEUgAAAOEAAADhCAMAAAAJbSJIAAAAYFBMVEX///8AAAB0dHSGhobl5eXg4OAwMDDo6OiQkJAkJCQnJyeHh4fs7Ox5eXmCgoLz8/Nubm7JycldXV01NTW3t7dra2uwsLDQ0NARERFlZWVgYGAXFxekpKTc3NxXV1ebm5umM2OcAAAC5ElEQVR4nO3d3XKiQBBA4eA/KComYhKTzfu/5epQXiwzyU5RPd2zs+e7RuGUhQoF9NMTAAAAAAAAAABAwTb1aqRZegstm/FC9cZgW6eZV55Aob/Q3GBbp6HQoTBrFDoUZo1Ch8KsUehQmDUKHQqztp1YuDXY1r87rBdju9bf+G682LrzF2p33nutD5Zxu/786m+muNdjvzPp694V6h5OF/W+z1+Kfa7R35OT+lLuu/vSDHwzCKyqo17gySSwqt61Am0+wbuzTqDFPvjwoRH4aRgY+m8kT/tn4k+n9IGBP1uq0v/0W32PPiT/Pt0ZB1ZV6v+ovXVg1ScuPFsHJv9no3G49LNr4kLrvpu0gQfrvJu0R/1rf4XP7Syd9tlf4Tpp4cJfYZt0hYFTPoukKwwUzpKucEahNArFUSiOQnEUiqNQHIXiKBRHoTgKxakXBk6XqhdKnjDdzEe2gUPuQOHLfvzCKPuXqMJ2O37h9Ps0av/towr3Ma8L2EcV+urJhauJhYFroqIEromKKlxRSCGFFFJIIYUUUkghhRRSmLSw+UcKm8mFS0/gysS4wm4xeqdF4K3iCjt/syYX+gJXm8QV+ifIAqft4grVrzaJK5x6Z1em50spdCgcUCiOwgGFDoUDCsVROKDQoXBAobjSjg/LP8Yv/zxN+efaKKSQQgoppJBCCimkkEIKKYxR/rX65d9v4Svtnhlf+fc9USiOQnEUiqNQHIXiKBRHoTgKxVEojkJx5T83sfxnX5b//NLyn0H7HzxH+GgdmPxZ0OU/z9v+mezJxyNpTggKST+n5GJcqDAWyXY4gsJ8i9C1vYpUpj59GAaqzJmx/E1Um/hkNQ7pTSvQ6lNUnNllsy8q7YMPS+0fDe3ZeTcXzb3RYP7h3aE/XhXqrsfedFRn0XNIv1XWLNmQ8ucBU+hQmDUKHQqzRqFDYdYodCjMGoUOhVnb1KuRJlDYjBeqJe+bAAAAAAAAAAAAyM5vucdP2Vx1SQgAAAAASUVORK5CYII=;" vertex="1" parent="1">
          <mxGeometry x="103.22" y="210" width="90" height="90" as="geometry" />
        </mxCell>
        <mxCell id="alSkmWKgk6mWW5NlKqTc-22" value="" style="whiteSpace=wrap;html=1;aspect=fixed;" vertex="1" parent="1">
          <mxGeometry x="-64.28" y="205" width="105" height="105" as="geometry" />
        </mxCell>
        <mxCell id="alSkmWKgk6mWW5NlKqTc-23" value="" style="shape=image;verticalLabelPosition=bottom;labelBackgroundColor=default;verticalAlign=top;aspect=fixed;imageAspect=0;image=data:image/png,iVBORw0KGgoAAAANSUhEUgAAAOEAAADhCAMAAAAJbSJIAAAAYFBMVEX///8AAAB0dHSGhobl5eXg4OAwMDDo6OiQkJAkJCQnJyeHh4fs7Ox5eXmCgoLz8/Nubm7JycldXV01NTW3t7dra2uwsLDQ0NARERFlZWVgYGAXFxekpKTc3NxXV1ebm5umM2OcAAAC5ElEQVR4nO3d3XKiQBBA4eA/KComYhKTzfu/5epQXiwzyU5RPd2zs+e7RuGUhQoF9NMTAAAAAAAAAABAwTb1aqRZegstm/FC9cZgW6eZV55Aob/Q3GBbp6HQoTBrFDoUZo1Ch8KsUehQmDUKHQqztp1YuDXY1r87rBdju9bf+G682LrzF2p33nutD5Zxu/786m+muNdjvzPp694V6h5OF/W+z1+Kfa7R35OT+lLuu/vSDHwzCKyqo17gySSwqt61Am0+wbuzTqDFPvjwoRH4aRgY+m8kT/tn4k+n9IGBP1uq0v/0W32PPiT/Pt0ZB1ZV6v+ovXVg1ScuPFsHJv9no3G49LNr4kLrvpu0gQfrvJu0R/1rf4XP7Syd9tlf4Tpp4cJfYZt0hYFTPoukKwwUzpKucEahNArFUSiOQnEUiqNQHIXiKBRHoTgKxakXBk6XqhdKnjDdzEe2gUPuQOHLfvzCKPuXqMJ2O37h9Ps0av/towr3Ma8L2EcV+urJhauJhYFroqIEromKKlxRSCGFFFJIIYUUUkghhRRSmLSw+UcKm8mFS0/gysS4wm4xeqdF4K3iCjt/syYX+gJXm8QV+ifIAqft4grVrzaJK5x6Z1em50spdCgcUCiOwgGFDoUDCsVROKDQoXBAobjSjg/LP8Yv/zxN+efaKKSQQgoppJBCCimkkEIKKYxR/rX65d9v4Svtnhlf+fc9USiOQnEUiqNQHIXiKBRHoTgKxVEojkJx5T83sfxnX5b//NLyn0H7HzxH+GgdmPxZ0OU/z9v+mezJxyNpTggKST+n5GJcqDAWyXY4gsJ8i9C1vYpUpj59GAaqzJmx/E1Um/hkNQ7pTSvQ6lNUnNllsy8q7YMPS+0fDe3ZeTcXzb3RYP7h3aE/XhXqrsfedFRn0XNIv1XWLNmQ8ucBU+hQmDUKHQqzRqFDYdYodCjMGoUOhVnb1KuRJlDYjBeqJe+bAAAAAAAAAAAAyM5vucdP2Vx1SQgAAAAASUVORK5CYII=;" vertex="1" parent="1">
          <mxGeometry x="-59.27999999999997" y="210" width="95" height="95" as="geometry" />
        </mxCell>
        <mxCell id="alSkmWKgk6mWW5NlKqTc-30" style="edgeStyle=orthogonalEdgeStyle;rounded=0;orthogonalLoop=1;jettySize=auto;html=1;exitX=0.5;exitY=1;exitDx=0;exitDy=0;" edge="1" parent="1" source="alSkmWKgk6mWW5NlKqTc-24">
          <mxGeometry relative="1" as="geometry">
            <mxPoint x="308" y="310" as="targetPoint" />
          </mxGeometry>
        </mxCell>
        <mxCell id="alSkmWKgk6mWW5NlKqTc-24" value="" style="whiteSpace=wrap;html=1;aspect=fixed;" vertex="1" parent="1">
          <mxGeometry x="257.86" y="204.64" width="105.36" height="105.36" as="geometry" />
        </mxCell>
        <mxCell id="alSkmWKgk6mWW5NlKqTc-25" value="" style="shape=image;verticalLabelPosition=bottom;labelBackgroundColor=default;verticalAlign=top;aspect=fixed;imageAspect=0;image=data:image/png,iVBORw0KGgoAAAANSUhEUgAAAOEAAADhCAMAAAAJbSJIAAAAYFBMVEX///8AAAB0dHSGhobl5eXg4OAwMDDo6OiQkJAkJCQnJyeHh4fs7Ox5eXmCgoLz8/Nubm7JycldXV01NTW3t7dra2uwsLDQ0NARERFlZWVgYGAXFxekpKTc3NxXV1ebm5umM2OcAAAC5ElEQVR4nO3d3XKiQBBA4eA/KComYhKTzfu/5epQXiwzyU5RPd2zs+e7RuGUhQoF9NMTAAAAAAAAAABAwTb1aqRZegstm/FC9cZgW6eZV55Aob/Q3GBbp6HQoTBrFDoUZo1Ch8KsUehQmDUKHQqztp1YuDXY1r87rBdju9bf+G682LrzF2p33nutD5Zxu/786m+muNdjvzPp694V6h5OF/W+z1+Kfa7R35OT+lLuu/vSDHwzCKyqo17gySSwqt61Am0+wbuzTqDFPvjwoRH4aRgY+m8kT/tn4k+n9IGBP1uq0v/0W32PPiT/Pt0ZB1ZV6v+ovXVg1ScuPFsHJv9no3G49LNr4kLrvpu0gQfrvJu0R/1rf4XP7Syd9tlf4Tpp4cJfYZt0hYFTPoukKwwUzpKucEahNArFUSiOQnEUiqNQHIXiKBRHoTgKxakXBk6XqhdKnjDdzEe2gUPuQOHLfvzCKPuXqMJ2O37h9Ps0av/towr3Ma8L2EcV+urJhauJhYFroqIEromKKlxRSCGFFFJIIYUUUkghhRRSmLSw+UcKm8mFS0/gysS4wm4xeqdF4K3iCjt/syYX+gJXm8QV+ifIAqft4grVrzaJK5x6Z1em50spdCgcUCiOwgGFDoUDCsVROKDQoXBAobjSjg/LP8Yv/zxN+efaKKSQQgoppJBCCimkkEIKKYxR/rX65d9v4Svtnhlf+fc9USiOQnEUiqNQHIXiKBRHoTgKxVEojkJx5T83sfxnX5b//NLyn0H7HzxH+GgdmPxZ0OU/z9v+mezJxyNpTggKST+n5GJcqDAWyXY4gsJ8i9C1vYpUpj59GAaqzJmx/E1Um/hkNQ7pTSvQ6lNUnNllsy8q7YMPS+0fDe3ZeTcXzb3RYP7h3aE/XhXqrsfedFRn0XNIv1XWLNmQ8ucBU+hQmDUKHQqzRqFDYdYodCjMGoUOhVnb1KuRJlDYjBeqJe+bAAAAAAAAAAAAyM5vucdP2Vx1SQgAAAAASUVORK5CYII=;" vertex="1" parent="1">
          <mxGeometry x="260.72" y="207.5" width="92.5" height="92.5" as="geometry" />
        </mxCell>
        <mxCell id="alSkmWKgk6mWW5NlKqTc-26" value="" style="endArrow=none;html=1;rounded=0;" edge="1" parent="1">
          <mxGeometry width="50" height="50" relative="1" as="geometry">
            <mxPoint x="-10" y="360" as="sourcePoint" />
            <mxPoint x="-9.28" y="310" as="targetPoint" />
          </mxGeometry>
        </mxCell>
        <mxCell id="alSkmWKgk6mWW5NlKqTc-27" value="" style="endArrow=none;html=1;rounded=0;" edge="1" parent="1">
          <mxGeometry width="50" height="50" relative="1" as="geometry">
            <mxPoint x="150" y="356" as="sourcePoint" />
            <mxPoint x="149.83" y="305.36" as="targetPoint" />
          </mxGeometry>
        </mxCell>
        <mxCell id="alSkmWKgk6mWW5NlKqTc-29" value="" style="endArrow=none;html=1;rounded=0;" edge="1" parent="1">
          <mxGeometry width="50" height="50" relative="1" as="geometry">
            <mxPoint x="307.89" y="356" as="sourcePoint" />
            <mxPoint x="307.72" y="305.36" as="targetPoint" />
            <Array as="points">
              <mxPoint x="307.89" y="356" />
            </Array>
          </mxGeometry>
        </mxCell>
        <mxCell id="alSkmWKgk6mWW5NlKqTc-32" value="&lt;b&gt;memory 1&lt;/b&gt;" style="text;html=1;align=center;verticalAlign=middle;whiteSpace=wrap;rounded=0;" vertex="1" parent="1">
          <mxGeometry x="-91.77999999999997" y="260" width="160" height="80" as="geometry" />
        </mxCell>
        <mxCell id="alSkmWKgk6mWW5NlKqTc-34" value="&lt;b&gt;memory 2&lt;/b&gt;" style="text;html=1;align=center;verticalAlign=middle;whiteSpace=wrap;rounded=0;" vertex="1" parent="1">
          <mxGeometry x="68.22" y="260" width="160" height="80" as="geometry" />
        </mxCell>
        <mxCell id="alSkmWKgk6mWW5NlKqTc-35" value="&lt;b&gt;memory 3&lt;/b&gt;" style="text;html=1;align=center;verticalAlign=middle;whiteSpace=wrap;rounded=0;" vertex="1" parent="1">
          <mxGeometry x="228.22" y="260" width="160" height="80" as="geometry" />
        </mxCell>
        <mxCell id="alSkmWKgk6mWW5NlKqTc-38" value="" style="rounded=0;whiteSpace=wrap;html=1;" vertex="1" parent="1">
          <mxGeometry x="-59.28" y="335" width="429.28" height="95" as="geometry" />
        </mxCell>
        <mxCell id="alSkmWKgk6mWW5NlKqTc-41" value="&lt;font style=&quot;font-size: 20px;&quot;&gt;&lt;b&gt;&amp;nbsp;I/O Controller&lt;/b&gt;&lt;/font&gt;" style="text;html=1;align=center;verticalAlign=middle;whiteSpace=wrap;rounded=0;" vertex="1" parent="1">
          <mxGeometry x="60.72" y="347.5" width="181.78" height="70" as="geometry" />
        </mxCell>
        <mxCell id="alSkmWKgk6mWW5NlKqTc-42" value="" style="endArrow=none;html=1;rounded=0;" edge="1" parent="1">
          <mxGeometry width="50" height="50" relative="1" as="geometry">
            <mxPoint x="160" y="860" as="sourcePoint" />
            <mxPoint x="160" y="440" as="targetPoint" />
          </mxGeometry>
        </mxCell>
        <mxCell id="alSkmWKgk6mWW5NlKqTc-43" value="" style="endArrow=none;html=1;rounded=0;" edge="1" parent="1">
          <mxGeometry width="50" height="50" relative="1" as="geometry">
            <mxPoint y="520" as="sourcePoint" />
            <mxPoint y="440" as="targetPoint" />
          </mxGeometry>
        </mxCell>
        <mxCell id="alSkmWKgk6mWW5NlKqTc-46" value="" style="whiteSpace=wrap;html=1;aspect=fixed;" vertex="1" parent="1">
          <mxGeometry x="-50" y="489.28" width="110.72" height="110.72" as="geometry" />
        </mxCell>
        <mxCell id="alSkmWKgk6mWW5NlKqTc-47" value="" style="shape=image;verticalLabelPosition=bottom;labelBackgroundColor=default;verticalAlign=top;aspect=fixed;imageAspect=0;image=data:image/png,iVBORw0KGgoAAAANSUhEUgAAAOEAAADhCAMAAAAJbSJIAAAAflBMVEX///8BAAIAAACsrKzU1NSfn58TExSOjo+vr7C1tbXk5OTv7+/y8vIiIiPa2tr39/cnJydaWlttbG3BwcHLy8scHB2KiorS0tJERESlpaXg4OBfX19LS0vIyMi+vr4ODQ6Xl5d8fHx2dnc6OjoyMjM9PT1VVVUsKyyDg4NxcXFNLr8PAAAHxElEQVR4nO2da3eiMBCGMV4QUbFe623VXtT+/z+4MoEWSwIkpsAbeb5sz25zNq8mM0NmMjhONj5jrfrDTjkyMphhKHzXV3hFENhiTF/hK4TCFhvrChzQImX1JpxhW1fhPhzP3H67xkzCKV51FS7ZY4u8DLbhHD90R+/C0TuT8zHPQ99CQIv0aHI+5gkdGmMdvcF72sVzszMyzZgU/tMbfKQFMDQ7I+MsHjA1H+HYs9n5mOcRY0HbcGl2PuYhUzPSWml7WuE134aO49Fe2ugMpW148E3PyDQbsodapiYMStmr6QmZh+maGv8AsQ0d5z2c51Zj4Iq24cz4hIzDTU2gPtCF8IY3+jRRDXvxEg68mJ+QcTa0EdVNzRBlG2qHzx3NT6YCdnqmhgelGvu3fE56D1C0DT//YD7mWZPPV7aJ2n60fMY0V1W/ttKPhUqHxyZdxVFdXSdTBRRfvigOOoMEpcSUohrFQbS03/5kPuZZ04IbKI2BCUqJucaTrM6nUh2UImNrpTEwQSmHTqOmKiOCCdI2jA6+leziGCcoJdbKvo3HQSDe0OFn10wpxzYFSMkkCVRNTUA794HseOkcFCfMn5r7fzch40wVTY36xq0a1afZKZY3dMIcm1o6HyooJXhUUzidz8/JkbahE1yUHtj7+rmOylBL5z+W/K8GtXS+ehxbPTydX9DU8Mw41DbkLpwxr9gveyofR10IRgqmhrzh4W8nZJ6dQlSjnY+rFIUc20DNedaFf8X3lkf+HssbOrF9LHR29gb2bBhTPA1xAfSGIYXNB49hVZMANSCs2GaTAqbmgQKcaimczqd04wIiM3oPfyIqYGoOkN4wpGA6H3YbRjm2fBOp4DjrxrVYtHnSLTCqnnWxEieMqlkhxdL5A9xtWDDHxh+VV6XMyDivRdyAZvFNPaAH217OLyHcIZFS5Kge2Bs6cfFBdjqfH46DbsNCpgbhKlcGk/yo5lOnuKg+5KfzIa5yZUCmppVVIzOjRYq6DYuk812MOyRShmQos0wNcFDKYTnp/CG/9lvehIyzzQlYQK5yZZCXznfhChR+M8s5RtvhFK9LyEnn83Jp5G2Yl2NbaZW81wsyNdJGIC52UEpkB9bnTP0YZFYOBfDe0Ikr8iTp/FXRU/E6w4ubJTfuMPoL5JF1TwT6iOYbOvheiP8N6CpXBhlZCSu2YWY6vwt1h0SOvNWFSsVNnXmXHTUFPbTidQlkai6CB6gO1FWuDPqy3WbLNryZGonF3OpcUqwlkuBzOLJkG0an2umD73FWxIqFJKqButicjSSdT8nFSRUTMg5fjvvff513lAqEOMfGTawV21DSCATrYnMOX6LKoewjKjCEpoaW7lc1EzKOKJ0/VrmOUXsGAlPTJoWWbMPoAeo+qqFtuPAs4d9n2qpcWP0bIqvQ+p3KHkP0JVfjvi1txz6BN4lphVUvLYOIFbKePTCRwtu6Hfp2MOTN9NIKrXGHkctvFCLTKIRg3D1Nl57kXMkChf9GkePbCiedqzAYqlLyFZtp7NSZ+JEvV+H6MFKjV24blHMijBZ2RshV2FWOkkq9U3v9eTVM63eEzSmgUDXILVPhJhL28brgP6VblIArfOOyVjd7sSYl6XJRcIU0+x4/SfPEB9nY+5Df9o3rK3fCU1BsW7q/q5FdCtMt2P7wXuFVT2GtuV+ldOMwZUyxFXJLE2U62+I6LnCFJ/oSR/uh4x+52tQdH3CF8dvuRp9RUJOucgJX6LjfURv5YkGVHrpCZ3sXeQseLuAVhrE3i/QJq7jwFTrzzyiYehM+5Vug8Caif7yuZZ2crVCYSaMQn0YhPo1CfGQKu31b6AoV2pTkZsIcsHU0CvF5wn3ImNu1Bfdp/WGjEIdGoRP4Nc5bFCE/96RaxNeqoAbeH3c2sg8WO3/Iae9C/72YpnP4IeA54Burn/DkRfQ9wiv0fs68GbsIDCS6wnmcsOD/93v6W0Tfh6NEFN0SpQ8L2NLeRI1FmTVR/LV+7Gu28j6S2dIE+R4/UKYMaRHUNS/KOE1JbarHHnZMM0y+T4zfz071Y8FWuLpLbItfEIetcHY3V+oalOoigK2Qn0fE95jFbxfDVsj7dUW3fLmUVLNObIVUyhY1oPHf6edUJh9coRfVmLjrU1SUkfJV4Aqp70UrUSOc7j6OrnCQvC3JRH300RU6ncO3RibslwSv0PG33zH/UfTv+ApvM14ubvJ2a/GlGRsUZtMoxKdRiM/zKrSiDRbhS2oxFI8Q64ykFkP5DLG+tMQKLeMZFVa9sowiUsjYybWF05N6i2fw+I1CHHIVeucXNc7H8lVkgZ4hJQ3d1x4bTT1xWg89y+04wSn+aA+CnhEWKBxcEqeJovQzusLh4u5EWCARXeHu16l+eqHmKjwqW5oyX1Q+48Iub8ttJDH1K7kK/bEqZbrSM8n6Cq3o+GJldo0lihPGyXTpD9gK718M8GJhlltQqWBZX4w5zTWe/ZeF1SZ+shVGEJqadFMFbIVUuMeichPeIyOV5gZXeORO0O1s9mcmnji4wuCnmRn/KV1kDq6Q3srFNdIfE40K2rqzTnb+6AleqwqvMPwWY15FJ4T4Cp3AXXB94s4YFii8sZnvV7ITXjsUZtEoxKdRiE+jEB+ZwmO/bQf9Y9P5ww4ahfg8jcL/2fi0WUtPSasAAAAASUVORK5CYII=;" vertex="1" parent="1">
          <mxGeometry x="-34.63999999999997" y="500" width="80" height="80" as="geometry" />
        </mxCell>
        <mxCell id="alSkmWKgk6mWW5NlKqTc-50" value="" style="endArrow=none;html=1;rounded=0;entryX=0;entryY=1;entryDx=0;entryDy=0;" edge="1" parent="1">
          <mxGeometry width="50" height="50" relative="1" as="geometry">
            <mxPoint x="-34.64" y="630" as="sourcePoint" />
            <mxPoint x="-35.52999999999997" y="600" as="targetPoint" />
          </mxGeometry>
        </mxCell>
        <mxCell id="alSkmWKgk6mWW5NlKqTc-53" value="" style="whiteSpace=wrap;html=1;aspect=fixed;" vertex="1" parent="1">
          <mxGeometry x="-70" y="620" width="80" height="80" as="geometry" />
        </mxCell>
        <mxCell id="alSkmWKgk6mWW5NlKqTc-54" value="" style="whiteSpace=wrap;html=1;aspect=fixed;" vertex="1" parent="1">
          <mxGeometry x="25" y="620" width="80" height="80" as="geometry" />
        </mxCell>
        <mxCell id="alSkmWKgk6mWW5NlKqTc-60" value="" style="shape=image;verticalLabelPosition=bottom;labelBackgroundColor=default;verticalAlign=top;aspect=fixed;imageAspect=0;image=data:image/png,iVBORw0KGgoAAAANSUhEUgAAAOEAAADhCAMAAAAJbSJIAAABCFBMVEUAAAD///88WVlp2OQ5SUn9fkIp0N81kLs+XFwzTEwmODg7VFQLEBA7TEwLDQ1kZGRiytX6aTEOgKwcKSkkEgkeUWkGERYbSmAzi7RQpa4fn6uNRiVs3uoiMjL/gkQMGRsLYoQpbo8mwtC/UCXKZTU2Gw66XTEYCwZgMBkuRERfKBOMOxstXGEYMDMbODs9YmPDw8NXs70/golIlJwiRkry8vKmpqY4dHoQISNdv8kqVls0a3GEhIQ4ODjg4OBUVFRFRUURV10oy9pMnKQirLlHIxPnczw5HQ+USiZxOB6FhYUXPlAITmkNeaMRLz0VaG8cj5oagowGIiVRIxHdbjraWyt7NBgaGhoxLElAAAAIWklEQVR4nO2de1vaSBTGI0EXBWm22N2yjrh1vbELrIQoAl6oaFtr7c12/f7fZJPMTDIzmYD4NDPTeN7/DCfh/HJOZs5ciNbCdB2cnFYtc1U9PTmYQWBN/fToXjfCA3R/9GjCw7Fu5x+o8eHjCM8quj1/sKpnjyE81O32PKqmRzGd8Fy313PpfH7Cg+jk2garGj5480KBfmf04Yb1pkYUt4SpTWoq4ZicuVLitYwPv/pFgZ6z+hN/8XLgRLm4SlTcIH6O5yU8Iyc2SwVe2gkDJ8rFSKsrxNO0xiaN8AiftiECGkdYXCXPTVqvmEZ4wlzPbMJiE39wMifhs/CsSiKEBhIWcVn5LL+Eq5kTvsxMz29vDSB8YWWrD7oJswaMETURvtzMnPA3zYSZA1rWrd4s/Zg54EfNz+Ft5oSvdLelL7kRwA/Wzc2HW91taaYypccHQiAEQiDMjDC7IQUzttBI+JtyVVQRli29KmdOWKrp5LNqpcwJaZpqEp4ay5aw1NQISKZvsyX0EXUtSlXo/HTGhIVSoRktHCjUxnKBupM1YQCpQ/HXKyDULCAEQiDULyAEQiDULyAEQiDULyAEQiDULyAEQiAMpXEeSgVhqbTcXFGr5jIDmTmhnjnhSrxfOXNCXYszNVWE2e9lS9OmEkKty2s1FSszuV9dy/8KaZn8HHHkZK8tRp/w11azX+UmSdpCdvZaYvUaf7GyvRh15YR/ACEQAiEQAiEQAqFywq4CQE2EhePgg5oKQF2EZX9w4Tl5JvSvP1DxEOokLKmJIBACIRACIRD+zISlkpPv/jD/NU1Yl7ZzTEjHFrkfPeV/fPhUCdFM7tkW5hL6vg+63UE6AyIWSGKBeJlIiBy3gz/ZHHVlkAh1+8fYou0OBAvUbbWpvKFbJ7fJIELk9C1Gxz1bZEQDj7Xw6iwj6lqCWmFbbQ4hGhwLHh5PhCD1RIYhM1GAOuKnPqN/k4whRE7SQd/DqYC+etElHNneh+MBMobQFiMYasTEaCAziK8hJfSrClMIkSv1z2JCKMlCX94MQmvLEMIohJ1+r+cOk4RxQzJ0e71+1OS0BcLNTiAmITxDCKn/E9KXkWcuLs7RiBwZYAuH/N0XCGled6O79NkIQpqkUcOB7JAgrs0RiVrUeqJBkLad6BYQwmj3A6oTwq8XRhD2haQM0tLtsaPkNk5R5tG16/1J/LlIGCN+NoJwlCC0hcKsJhIKFgnCKDE8IwhJDN3Umpo2pamLAUlC2yZB3DKBkGZUq5uo1YhFCxtU+o68LJcQ0iB+NoDQjisabyJFQJPIolWXGcgISZHwyQRC+iCGkg8smC3Fx27yLsiylKRpxwRC2+H2RLd7icnGKJGxhnUhnWWEtIsxgjAx+HFFRrGwa084RinhyCBCcfDnnzcREetC6dlxpvYWcRNtBmEQxiEHEFdk1ABN2rwF21ZNIbwwhNAncFxu97CIGExjtLh/BhJf4meIYeiTXWcDKSZqeBd67DgqWhqQErbMI8SBjAEkBv5d6MZ9S0Qk7S1wUm+aRRhCTugAryc18TvD6C4MphFik9fGEQZhIg1rO80EDUgHSktZWU1D6qAvBhL62kxPU+w+6UCHUwjJbbo0gRDZQolCm0GahP7jKRZquMHxUgmjIsKA0RNyfG+H3IoprWAIIar7Lrj8PfBmEJJ2him8NcYwbFi4EoW6R2jwKGHEhJEOHFKzlHYV7GybNkJSVFeiYRGiSUpaGvqnF6UqIkma0tL4SU371bgl1UcYDxu8OlleojUq8T8eXI0G4RqTXadjEWlv4dTjNZAtAwhtdkbfG/VHcfVJnk1m/GtVhv1+KxprzZwRZicTNbY0siUJJoS+WikWNIRphKMlIwjTEIdMyyNHnLEyY7WMWXtCXYmDHgMoX9lg5+ZkSzuuSatr9kh0b2RzSgyR+aEHSga5E0yZG0MYEHBrwF5itw0Shsgjfp7D4QaO0UyOQYTh4NAlhUpilZ5YOBPc0FaGibkqZPf6fRer1+vS3Q5GEdp4P0ViQl80QDaSWsi2YhhH+OMFhEAIhEAIhD+Y8AJ7VMgv4dKlX/5WFLz5Qx/h0sVlmTiRV8KlpX+BEAiBEAiBEAifPOGXr9WVXBOGr8JS8DYzbYSX+IuVvc0MRk9ACIRACIRA+KTffZn/95fm/x20+X+P8BN4F3T+3+ddeALvZH8C79XP//9GwJC5/v8WugWEQAiE+gWEQAiE+gWEQAiE+gWEQAiE+gWEQAiEGqahhMmozN9YXmjWdKhZKKkhLDWFX5opU5XOCWe8MrOiiS/QioqVmdyvruV/hbSsk89SuK9tb0219vAXK9uLsbuoQL+y+ksx4XYj74T5j2H+CbdzT5j/GD41wjeLyaa1sSg5GJgmJTVtLL4x5TlsbN+tXe0mXFzf2blOeL19tXaV7Giud3bWE6a7V2t3382I4Tdp03MdHLwTYLZlpo274KB4N7DpdxMIGyGLdcXDvMFm33iW/fDgPm+K75DFp2/jKjz4nxFZit3e493elj2ujZ3w4A5vupu4YmCKy9C/TYghEAKhqYR5eQ6rCUADY1h8HOEJcz3DCZv4g5M5CY/waRuJNDUiS1fZJCVTY0dzEp7h06ymiGhEDFlAOn17NifhwpicuCKsHUSzGJEoISdKyB99Gx58yx/cTVwxUCqh78NqrOIG8XOcBpJKeGBR1TZYkZy4Xo+EA2O9W2eFSzlrnzv4Dru9x5vuJ64YmOKDO/9Euo69iZcy7iMvD+YmXDi3fiadp3KkEx7qWn95jKqHjyBcONPxk4PHqZrWzEwnXDgc6/b8gRqnR3A6od8r3s++vHbdp/WEDyH0m9T3pyY/j9XT96mNKNH/GLEg2cB7x24AAAAASUVORK5CYII=;" vertex="1" parent="1">
          <mxGeometry x="35.18" y="625.72" width="59.64" height="59.64" as="geometry" />
        </mxCell>
        <mxCell id="alSkmWKgk6mWW5NlKqTc-63" value="" style="endArrow=none;html=1;rounded=0;" edge="1" parent="1">
          <mxGeometry width="50" height="50" relative="1" as="geometry">
            <mxPoint x="60.72" y="620" as="sourcePoint" />
            <mxPoint x="60.72" y="590" as="targetPoint" />
            <Array as="points">
              <mxPoint x="60.72" y="610" />
            </Array>
          </mxGeometry>
        </mxCell>
        <mxCell id="alSkmWKgk6mWW5NlKqTc-64" value="" style="shape=image;verticalLabelPosition=bottom;labelBackgroundColor=default;verticalAlign=top;aspect=fixed;imageAspect=0;image=data:image/png,iVBORw0KGgoAAAANSUhEUgAAAOEAAADhCAMAAAAJbSJIAAABCFBMVEUAAAD///88WVlp2OQ5SUn9fkIp0N81kLs+XFwzTEwmODg7VFQLEBA7TEwLDQ1kZGRiytX6aTEOgKwcKSkkEgkeUWkGERYbSmAzi7RQpa4fn6uNRiVs3uoiMjL/gkQMGRsLYoQpbo8mwtC/UCXKZTU2Gw66XTEYCwZgMBkuRERfKBOMOxstXGEYMDMbODs9YmPDw8NXs70/golIlJwiRkry8vKmpqY4dHoQISNdv8kqVls0a3GEhIQ4ODjg4OBUVFRFRUURV10oy9pMnKQirLlHIxPnczw5HQ+USiZxOB6FhYUXPlAITmkNeaMRLz0VaG8cj5oagowGIiVRIxHdbjraWyt7NBgaGhoxLElAAAAIWklEQVR4nO2de1vaSBTGI0EXBWm22N2yjrh1vbELrIQoAl6oaFtr7c12/f7fZJPMTDIzmYD4NDPTeN7/DCfh/HJOZs5ciNbCdB2cnFYtc1U9PTmYQWBN/fToXjfCA3R/9GjCw7Fu5x+o8eHjCM8quj1/sKpnjyE81O32PKqmRzGd8Fy313PpfH7Cg+jk2garGj5480KBfmf04Yb1pkYUt4SpTWoq4ZicuVLitYwPv/pFgZ6z+hN/8XLgRLm4SlTcIH6O5yU8Iyc2SwVe2gkDJ8rFSKsrxNO0xiaN8AiftiECGkdYXCXPTVqvmEZ4wlzPbMJiE39wMifhs/CsSiKEBhIWcVn5LL+Eq5kTvsxMz29vDSB8YWWrD7oJswaMETURvtzMnPA3zYSZA1rWrd4s/Zg54EfNz+Ft5oSvdLelL7kRwA/Wzc2HW91taaYypccHQiAEQiDMjDC7IQUzttBI+JtyVVQRli29KmdOWKrp5LNqpcwJaZpqEp4ay5aw1NQISKZvsyX0EXUtSlXo/HTGhIVSoRktHCjUxnKBupM1YQCpQ/HXKyDULCAEQiDULyAEQiDULyAEQiDULyAEQiDULyAEQiAMpXEeSgVhqbTcXFGr5jIDmTmhnjnhSrxfOXNCXYszNVWE2e9lS9OmEkKty2s1FSszuV9dy/8KaZn8HHHkZK8tRp/w11azX+UmSdpCdvZaYvUaf7GyvRh15YR/ACEQAiEQAiEQAqFywq4CQE2EhePgg5oKQF2EZX9w4Tl5JvSvP1DxEOokLKmJIBACIRACIRD+zISlkpPv/jD/NU1Yl7ZzTEjHFrkfPeV/fPhUCdFM7tkW5hL6vg+63UE6AyIWSGKBeJlIiBy3gz/ZHHVlkAh1+8fYou0OBAvUbbWpvKFbJ7fJIELk9C1Gxz1bZEQDj7Xw6iwj6lqCWmFbbQ4hGhwLHh5PhCD1RIYhM1GAOuKnPqN/k4whRE7SQd/DqYC+etElHNneh+MBMobQFiMYasTEaCAziK8hJfSrClMIkSv1z2JCKMlCX94MQmvLEMIohJ1+r+cOk4RxQzJ0e71+1OS0BcLNTiAmITxDCKn/E9KXkWcuLs7RiBwZYAuH/N0XCGled6O79NkIQpqkUcOB7JAgrs0RiVrUeqJBkLad6BYQwmj3A6oTwq8XRhD2haQM0tLtsaPkNk5R5tG16/1J/LlIGCN+NoJwlCC0hcKsJhIKFgnCKDE8IwhJDN3Umpo2pamLAUlC2yZB3DKBkGZUq5uo1YhFCxtU+o68LJcQ0iB+NoDQjisabyJFQJPIolWXGcgISZHwyQRC+iCGkg8smC3Fx27yLsiylKRpxwRC2+H2RLd7icnGKJGxhnUhnWWEtIsxgjAx+HFFRrGwa084RinhyCBCcfDnnzcREetC6dlxpvYWcRNtBmEQxiEHEFdk1ABN2rwF21ZNIbwwhNAncFxu97CIGExjtLh/BhJf4meIYeiTXWcDKSZqeBd67DgqWhqQErbMI8SBjAEkBv5d6MZ9S0Qk7S1wUm+aRRhCTugAryc18TvD6C4MphFik9fGEQZhIg1rO80EDUgHSktZWU1D6qAvBhL62kxPU+w+6UCHUwjJbbo0gRDZQolCm0GahP7jKRZquMHxUgmjIsKA0RNyfG+H3IoprWAIIar7Lrj8PfBmEJJ2him8NcYwbFi4EoW6R2jwKGHEhJEOHFKzlHYV7GybNkJSVFeiYRGiSUpaGvqnF6UqIkma0tL4SU371bgl1UcYDxu8OlleojUq8T8eXI0G4RqTXadjEWlv4dTjNZAtAwhtdkbfG/VHcfVJnk1m/GtVhv1+KxprzZwRZicTNbY0siUJJoS+WikWNIRphKMlIwjTEIdMyyNHnLEyY7WMWXtCXYmDHgMoX9lg5+ZkSzuuSatr9kh0b2RzSgyR+aEHSga5E0yZG0MYEHBrwF5itw0Shsgjfp7D4QaO0UyOQYTh4NAlhUpilZ5YOBPc0FaGibkqZPf6fRer1+vS3Q5GEdp4P0ViQl80QDaSWsi2YhhH+OMFhEAIhEAIhD+Y8AJ7VMgv4dKlX/5WFLz5Qx/h0sVlmTiRV8KlpX+BEAiBEAiBEAifPOGXr9WVXBOGr8JS8DYzbYSX+IuVvc0MRk9ACIRACIRA+KTffZn/95fm/x20+X+P8BN4F3T+3+ddeALvZH8C79XP//9GwJC5/v8WugWEQAiE+gWEQAiE+gWEQAiE+gWEQAiE+gWEQAiEGqahhMmozN9YXmjWdKhZKKkhLDWFX5opU5XOCWe8MrOiiS/QioqVmdyvruV/hbSsk89SuK9tb0219vAXK9uLsbuoQL+y+ksx4XYj74T5j2H+CbdzT5j/GD41wjeLyaa1sSg5GJgmJTVtLL4x5TlsbN+tXe0mXFzf2blOeL19tXaV7Giud3bWE6a7V2t3382I4Tdp03MdHLwTYLZlpo274KB4N7DpdxMIGyGLdcXDvMFm33iW/fDgPm+K75DFp2/jKjz4nxFZit3e493elj2ujZ3w4A5vupu4YmCKy9C/TYghEAKhqYR5eQ6rCUADY1h8HOEJcz3DCZv4g5M5CY/waRuJNDUiS1fZJCVTY0dzEp7h06ymiGhEDFlAOn17NifhwpicuCKsHUSzGJEoISdKyB99Gx58yx/cTVwxUCqh78NqrOIG8XOcBpJKeGBR1TZYkZy4Xo+EA2O9W2eFSzlrnzv4Dru9x5vuJ64YmOKDO/9Euo69iZcy7iMvD+YmXDi3fiadp3KkEx7qWn95jKqHjyBcONPxk4PHqZrWzEwnXDgc6/b8gRqnR3A6od8r3s++vHbdp/WEDyH0m9T3pyY/j9XT96mNKNH/GLEg2cB7x24AAAAASUVORK5CYII=;" vertex="1" parent="1">
          <mxGeometry x="-60" y="625.72" width="59.64" height="59.64" as="geometry" />
        </mxCell>
        <mxCell id="alSkmWKgk6mWW5NlKqTc-65" value="&lt;b&gt;Disk Storage&lt;/b&gt;&lt;div&gt;&lt;b&gt;&lt;br&gt;&lt;/b&gt;&lt;/div&gt;" style="text;html=1;align=center;verticalAlign=middle;whiteSpace=wrap;rounded=0;" vertex="1" parent="1">
          <mxGeometry x="-34.639999999999986" y="580" width="80" height="30" as="geometry" />
        </mxCell>
        <mxCell id="alSkmWKgk6mWW5NlKqTc-66" value="&lt;b&gt;Disk 1&lt;br&gt;&lt;/b&gt;&lt;div&gt;&lt;b&gt;&lt;br&gt;&lt;/b&gt;&lt;/div&gt;" style="text;html=1;align=center;verticalAlign=middle;whiteSpace=wrap;rounded=0;" vertex="1" parent="1">
          <mxGeometry x="-59.27999999999999" y="685.36" width="60" height="30" as="geometry" />
        </mxCell>
        <mxCell id="alSkmWKgk6mWW5NlKqTc-68" value="&lt;b&gt;Disk 2&lt;/b&gt;" style="text;html=1;align=center;verticalAlign=middle;whiteSpace=wrap;rounded=0;" vertex="1" parent="1">
          <mxGeometry x="35.72000000000003" y="680" width="60" height="30" as="geometry" />
        </mxCell>
        <mxCell id="alSkmWKgk6mWW5NlKqTc-69" value="" style="endArrow=none;html=1;rounded=0;" edge="1" parent="1">
          <mxGeometry width="50" height="50" relative="1" as="geometry">
            <mxPoint x="306.82" y="530" as="sourcePoint" />
            <mxPoint x="307" y="440" as="targetPoint" />
            <Array as="points" />
          </mxGeometry>
        </mxCell>
        <mxCell id="alSkmWKgk6mWW5NlKqTc-71" value="" style="whiteSpace=wrap;html=1;aspect=fixed;" vertex="1" parent="1">
          <mxGeometry x="236.97" y="485.72" width="124.28" height="124.28" as="geometry" />
        </mxCell>
        <mxCell id="alSkmWKgk6mWW5NlKqTc-74" value="" style="shape=image;verticalLabelPosition=bottom;labelBackgroundColor=default;verticalAlign=top;aspect=fixed;imageAspect=0;image=data:image/png,iVBORw0KGgoAAAANSUhEUgAAAMgAAADICAMAAACahl6sAAAAbFBMVEX///8AAACbm5uXl5czMzPPz8/Ly8tjY2NnZ2cvLy/39/cGBgYaGhr8/PxaWloYGBi0tLRRUVEpKSnY2Njh4eHr6+uCgoKpqamjo6MiIiLAwMBHR0c8PDzx8fESEhJMTEyMjIxzc3O7u7t6enp21pwDAAADI0lEQVR4nO3c6XKqMABAYVDcxQ33rdi+/zteRxSNl4YkkBA75/xrR8RPdpUEARERERERERERERERERERERFR3cWb+Th01fhrO7Tk6C6cKbJ2eyuO2cix49rWgqPbgCMM618msev1KmtX+3ayacRhYeWaNwSZ1w1xt98VG9cNacgRhtYgk5bbrEFqf2bHAfEtIFoNk65Bic7h3wXk+2B4Pjc6qJ+T2YfEfTNF1tofSK+KQ11iHTKr5gjDrieQqCrk4AckqeoIw5UXkBqud2ZeQFrVIWqvzDakDcRPyM7kkuXoISQymbYHxEJAAiAmsyoPSADEZFblAbm2zw7widKDfYZoBUQxILoBUcwc0rkcB792vLx/SuQr5DQJS5qLn654CjkpfBy2ECSeQpS+bBa+GfYTsldxiL+f8BNSuoFk9V4m8ROi+O3/4mUSPyFqjnBUNMknQsKiSYDIqwA59yUdPwginaYNxDAgQIDIAwIEiDwgQIDIAwIEiDwgQIDIcw859upu2Qyk/jpAgAABAgQIECCGkPNfgRz+CsTimA9uIXHl2+s8gQSJta3EMSRIbI2M4hoSDNPB34BcO3XU6kped/f9wcMGIKrJblhdSmboHWQrgRQPouMp5EsCKR5Ex0+I/Fbowtsj/ITIFsgvN57fIQvVAStWLiCp1FE8qoHuvbotB5DyO7rTWiG7tqSJMWSoMpjG5L/RACpAFNJnxK2d0jOf05MG5Bzdm7qBDL8v0/Infby43uzVIlsfp/nyi/OfXhdCdnfv+1nh6P2VyhDtyUB7nJnFJB+nQTaayMvOIT/3SW9/iu9bmj/s7epJY9g0ldsfCnv8bH0leUz/OZ+N+D9xP/8yhJC4gmsMZPdj6HiOnSE79qwfR49tvgiignf+eaSNxYsntfE5bplfP17uz9DRXDFv557idetgdvfuxdtKjuqOCp9N5BuA5oAi2XRLhb3LuPh8uzjjkX9Gz7lstC6mp9kWkZSuC5GO4/p+ml3SCwPIrtaRxvp1X5Tx9iCZ9fmwibUc1/2v4sWjUKI7FyIiIiIiIiIiIiIiIiIiIiL66P4BcGk6f2hqgTwAAAAASUVORK5CYII=;" vertex="1" parent="1">
          <mxGeometry x="241.08" y="488.58" width="111.42" height="111.42" as="geometry" />
        </mxCell>
        <mxCell id="alSkmWKgk6mWW5NlKqTc-75" value="&lt;b&gt;Devices &lt;/b&gt;" style="text;html=1;align=center;verticalAlign=middle;whiteSpace=wrap;rounded=0;" vertex="1" parent="1">
          <mxGeometry x="266.79" y="580" width="60" height="30" as="geometry" />
        </mxCell>
        <mxCell id="alSkmWKgk6mWW5NlKqTc-76" value="" style="endArrow=none;html=1;rounded=0;" edge="1" parent="1">
          <mxGeometry width="50" height="50" relative="1" as="geometry">
            <mxPoint x="246.44" y="640" as="sourcePoint" />
            <mxPoint x="246.44" y="610" as="targetPoint" />
          </mxGeometry>
        </mxCell>
        <mxCell id="alSkmWKgk6mWW5NlKqTc-77" value="" style="whiteSpace=wrap;html=1;aspect=fixed;" vertex="1" parent="1">
          <mxGeometry x="180" y="615.2" width="124.8" height="124.8" as="geometry" />
        </mxCell>
        <mxCell id="alSkmWKgk6mWW5NlKqTc-78" value="" style="shape=image;verticalLabelPosition=bottom;labelBackgroundColor=default;verticalAlign=top;aspect=fixed;imageAspect=0;image=data:image/png,iVBORw0KGgoAAAANSUhEUgAAAOEAAADhCAMAAAAJbSJIAAAAwFBMVEX////q6+8AAAD5+fmyuMzp6u7t7vGvtcr09fmpr8L8/Py8vLzv8PS3vdL39/cUFBTx8fEmJibd3d1BQUEJCQnV1dXGxsY7Ozuvr6/q6uqbm5vh4+lbW1tKSkrW2eJWVlaLi4t6enobGxuTk5OEhIRtbm+oqKjNzc1lZWUsLCzAxdXAwMA/Pz+fn58gICDJzdqfpLZ/hJJhZG9OUVp0eIWLkKA9P0YvMTaSl6dZXGYrLTVobHdIS1O3usS0tbjQ1ONAwUurAAAN1klEQVR4nO1diXaiShMWBCQKijvuouISo1knk/yZm7z/W92uakCigEosnHP//jJnEtG2+qO7lq5eyOUEBAQEBAQEBAQEBAQEBAQEBAQEBAQEBAQEBAQEBAQEBAQEBH6M/LRdGX1mJKxltzKStMNCRtSLGcgqoahNBpJCaMoe2vSy5p6oAb2oHYo+wYY8ppZV82VlSnEMAj9rjlyZyB1iWROQdSfLk0qWHRWElnQpN5K3sksrCvtoS++1K/JEphUVAmjh/1RJLddYN5UtUllA0NYlYwiNuCYVFcKGSX350iSDNaIsdylFoR3NSZL29cz+GFOKCsNhwn7dapKUW7O/qpSi4BZOi6qk3T6yv4g1YgeXCXtTNEnNYycitDVotDtlVZKUX1kynEEbKj2miNichJEN9JFRjvWWngJtOKWT9B1g314UVESognNqOWthb6bdeal2siS4gTao4b35QXsvvwNs6bPJFFErWqcqYrnkVALfLffnp7FsQCdFNTRf2Z/NH1X7DIB2NMwCKuKK/Z0/VqA8H8gHmC2OCuqwj1VyTA21gimfIuhiAFo3hUARj1S11T+kxzE+YqRstC6WKvUKD3BXL8fgGNBdKENNtbASidGUHeqco+m61iyN66EriR0P5MyZodG+0JQuL8siCUDrgytiLVmyveMSVr3FdOVfrydwhJtTK0qghk/UscV3AK1Xk3lEqYgeMfZzPo9+6WAg2dn4by7LMcUt/O48U0MFDU2Ww2AQbYIi5nPQ5WJC07FHoRtDoeZ6H7Cj3wdXNMjpTA0VNDS0EfB3gGl8AEUso/uPvLn5u8Pql5uf61qoOS3Ha8ZIKXCHxjlD0oZKxoaGy35UbsHn2zEK0vHaL7jQ3Cy9Jtu6dmBEOyO8tIpqZugeJTA0t2amUSkAQv53rojN6CbgQ/O6z2Th7OwnuHG52vXfWvOrEV0QLqO/V8x3ViqmL9MAGqjKFbEYaWp4IsePI+chj+FT3HmKMvceB62I3wH+vlcwt2BVKRkdAIQrhaEmlXPtiAbgBD31/AxxG4xG7d3LgVdpbODtvow59g5maIaFQuRtJAWo1BtTRObznQhTg63Cq9/x/Xt743s+qzXzOc74lWm4xX24qMZMDe+VN2hySj6H6DKRL6CIWqSpWQYESx6V/QBt4YVyFX59umMboIK3TgI1/IgxZ4SAjPAfVMTIqCbv9nnNPZc45R6iaXdns+l8gRF0xzOtPPmykQd7cXUZ7Q/z92oB/f3xQP2iyIN4s4AeMUFHuEvHoMUKjy/qc6DT3OKLGBvZYm9NwNAM+cCCiEksqkzmDVfEQbStZ+A9EW5+x5X3MAOOswSKoAgwsGBqCP6+TsclGji84Io4ZuY/MqrZoIEBJtN9foB5jjdUzMgWbs8GDI1pvsgZ5tl8gH15AkWU0JhEZlAGFZ6K71Q9TstuqdWyx353rZe9yGDfxiCw+dnAgqnhs5xt2I2Amv1mish8fifOlNs80vKmVpY7U1G0vXFFkwcPUUYEo758PlDDuAEIHUCqAoqYYGpq4DF4vDZitrUzxdbr28yyrnlgwz6Q30R2UgjmVszfe2q4ouQSDYiY3xQFgm9XTgipOr5LsELJDOjUaGXiKw5+xoGBhYlhd2RHpgUYjxezoDJF3HhmIxLg1laWb1N8VC0/GRqHARpZzVfDEgmJRECN/6Ai4vAifmizWEIexw9Ogxic6VVnUI9PRWEfLgZqmOXo1wOGHKZyzxQxenjxDXxOdQAGscxzU/3kAmhjmb/31LBysXqfAe7zUREhuE5ODFqeMnKACt4lf7uNN4EZGj76PTmvfklANR9BETW0CkcUpeU6IWNUOjraczx/LxXMP3KG+fwwwFC8oyKiz7+wsQOH2WT+3lND6rn0SOwUEX3+ZacRuWrnfTXMPOzmaKNHNDVVz1086GihGpZBDV8SLTUpprybgiIuLx04uqiGFkzJ/JZjB1jUwHVRptnTdfT5/els5jiO644Gg3p9Vd1WKg05Ho1KZVtd1euDwWjpOs5sNhtPu5u5/bluLZo1HtEZRk+5kZMiJmKA7I+XD3fUTqKSGhv7s/XPzce11DD/6cTX7dKEJ3bmIc3hkF1ukLRjgNUmi0WCAcYHFdgOls64O7dLrUWt1rGscnx9ivl8uWyF0enUmouSPe+OHbdfr0bwQ2S46CuY4ayMnOl83ezssmRFjvxp8D7Ly4QElBnlVmnenbmDcM9oZzXLzZPWbsmbRDqd0OkIM+4013NfKbIZ6GOa07Wwu2UBTrY0AbGk66984Eh2nktd4XIETijmZUOyGGOAYkz3CRZ3ldct3bIMBo1DQqgHYNcOrsInoYxhWfoBcZ72oPf9MIxYeQTLum4ZmoE0DquaDA3/xcL/Gs3QA6K5gTxp0C8U5vOyINCSTiQTz/EUMBGaxTtKR2ZxIHUjYuYM+mRZCrhpJ9Z1j98ZpVQVOeacRqVBnXSDENtlTWipKSqajh7nKLHOWmxCPEjMENZXtIp53W/ANPzSlYJmxGXttMv3cFyfCwhqqXpo2lJWEc0p7SJTcIZLmNPbyU2DdD1bMlA+rTWdorffSc2OIJRSy7wPUQKmHmpGeg/xQ6iYgiP1F1tmzMrX4segQ+hGuusCOol+RYYGVxM6YBbTuCZDSPaPCRla125DbS3TJk8hZttelSFkMI/MWv0IkMZsX5Vhk9ghwvePrsoQ7jHlyhqcTbgmQ6kn0+7MRT2/pi0lZwiT8c5VGWoy7cIT9EZXZWgQM4Tx7/Q/zRCWC26uylAnTpoCw/m5DNMNsWJKAcODBeEXBMzI2OczTDXgjS6lN2gZQhLh8zyGWiqCsaX0LSwcpgOOzs6s8GXTAPqKliFMAbXOqXK6pFOC7uptWoYw7bRIU+OLQb+j3eEFa0qbpzeKlipfnFhKr9OmomDNZ+3kShMQlPQBPcPeObU9n+CRUvqIluHdWQxTOsJjDBuUDCFbeWKyNN2UjXSs3anbEBaCnFjxlPyOQe/TMtyemkwkm7KhZjg5g+H5BE8ppS9pGZ6eEKaassmC4VUTUf8HDA332gzTDZZOd51XZ6hJqcb02smlMmDYOMLwyEqgOIKnlvorGJ7fhmeUyoDhJJmhlkYRzyiVAcMjk2sXTsv8hQyp8d9nmIHHj2V44ZTTX8mQ1NVfneHF04ZxDIlHTwn+MKP1X4whaRYjnmE2LQhZjAY1w8i4NLsFfHr/Ggwp8qLxDOVt5gzTxNqpS+lwmkjWDDMFdc47hmGGC4WzYPg9E5U28ZuylAaza9lmE7NdBs1nSKkzwuHaUY+V9osxhhNahofzFlmu1cc2JF7Kvtqbe8oqkuGlsmB4x4LCb7NrWashOcPz5oCjamnoRri8oeuG8f21/v21qn6/kAHDM+bxD6A3Z31nHXhUzZgvB8vP0OvuYDXoBr1Yk2ABz7YbcsHAkHItBkxPLtIz1PnBdEuvUbQe35g+8Bupx08ZbHjdRKt5G7lDi3ZV4pV7yx8xxK0EDrNWrlfjBpzwXQ8WVkO8suwyGQ0uwmCeYdYqDcLrsHrEq6DdFGuidmBW4q6IC6twTY4x49tfxt53wjr8eS4PS61xhSfsHmnldD3flgd+I2o94pXssOqrlHb1pcaq3jRUqcxaxuCEnbyqqsUJX3cMjJhhUXWX7wdgzt2FbYDG5y7M0GJOLb4YUqzc2wE6qQ5hiSsvgQFrjjUydbmiGQ7vrvg5/j7eTWDlmzct+eC0nyPV6suAYUmWleFw+PWHr4ZnDN6Gvd7wa8tfM4avXz1JHb4gQyDzoDI/r96EGMJuAcqdwD9bI6ziaZlwpE4X264q/zaVAhxWhv3C6MJBjIWCUvGMJxwZbt6a8HQSv5ca/8i0m0jhFMtuaoawte7p4VfFi22hN76+PXww+4OEYLfI64358Nuz18y0VhST/VR2u1gMOBaL8owT2I0wS7/OW/PO9PRUWffO85j0eBPp/qEwU86Y9cjGy68XdkdagUw4nY7y0CjQgqfUBFmlwRhXg6BGx5NNnSBO9SICP8jR/WfKBUGNBjpKusMSLNnT/Q/CNkNr1kJxpqE3F1qoTxhSyW7tAlV9ASFGv7UL6/DYa8pDoWF33rNyzupEaX+wtDd02h9JacYuKIW0jM5i8eAj2r35LtPuA4Y9pL/h2STnMbzUlE2PH+xNeioWaIVZOKefXnL5iaKYDdrBEz/Z5AGfGHB6XVPwiy5lKng8He1jM/mJnudQvFSiQ+sprAnhiUG0xwzBBsRXdi8Ltz3tOCT//ygOZ90UTbovAMMMThSWsZsyFFhA5eP+EF+A4VH0oqCyH/wdYHhfKKBQOL2F+EgzB62psodCJEwWckW/g4gpxcocluJi0FdQ7uQG4BlDzwcUo2Div7NhxpZCLaR/uhwGVr8fzOOVN03zNg3DuFJ4YnIWTyrhRwq+PjKSSbhlPx4S2ETclYPPe9/y8AcFZ3EIZvAknMnr8/vT08fHx9PT+/v7M4D9xisfL48vjwy/GN7e3h4ANzegTzeJ2H+bFXt7+/X4+PHsnXSezRMQD0/2PECjQXPYZ1aPeGxGPK/x27GsjYk8ObHO55SKfQQdATpzd5VYmVSoTCoJbx57HCQF8hYcrbpordelfcCVT9u25/P5ptudTsf8FOXlst/vw0HKbUAVMKnssK1M8Fp11fZRH/TdWddeXOHJAQICAgICAgICAgICAgICAgICAgICAgICAgICAgICAgICAgL/PfwLEGEtDQW/ktgAAAAASUVORK5CYII=;" vertex="1" parent="1">
          <mxGeometry x="183.22000000000003" y="620" width="112.4" height="112.4" as="geometry" />
        </mxCell>
        <mxCell id="alSkmWKgk6mWW5NlKqTc-80" value="" style="endArrow=none;html=1;rounded=0;" edge="1" parent="1">
          <mxGeometry width="50" height="50" relative="1" as="geometry">
            <mxPoint x="361.75" y="625.72" as="sourcePoint" />
            <mxPoint x="361.25" y="605.72" as="targetPoint" />
          </mxGeometry>
        </mxCell>
        <mxCell id="alSkmWKgk6mWW5NlKqTc-82" value="" style="whiteSpace=wrap;html=1;aspect=fixed;" vertex="1" parent="1">
          <mxGeometry x="320" y="620" width="120" height="120" as="geometry" />
        </mxCell>
        <mxCell id="alSkmWKgk6mWW5NlKqTc-83" value="" style="shape=image;verticalLabelPosition=bottom;labelBackgroundColor=default;verticalAlign=top;aspect=fixed;imageAspect=0;image=data:image/png,iVBORw0KGgoAAAANSUhEUgAAAOEAAADhCAMAAAAJbSJIAAAAkFBMVEX///8GBwkAAAAFBgj+///h4eF2d3gAAAV2dncAAAcJCgwFBgcFBgsKCw38/PwAAgWxsbF9foDj5OQOEBRoaWsVFhg8PT4ZGhza2934+Ph/gIIABADd395mZ2msra8gISO9vsBVVVWLi4vx8fGbnJ4rKyvFxcXQ0NC5urwdHh1YWFodHR9oaGgwMDIoKCgSFBPMjkZFAAAOL0lEQVR4nO1di3bbKBQUIEcOWFLs2o2zcZomTZum3Tb//3d7L+gBCGSwlY3dMt3tqeTJNSPeaCBZlpCQkJCQkJCQkJCQkJCQkJCQkJCQkJCQkJCQkJCQkJCQkJAwipsK/+TvnYxoQJrzvAphVjf5TVbNrh6XFz3mgO4fCtalvNV/0H96wOU8Ehfwc0+rDAQGZQzkYPb8456eHZ4zyJmgPMy+PG4oJZwwAmAdyOhlKC/qMhSccUJ/fMmrwFK6pgWrmf5FJAZHi4v6NvVj8B/9uYWaGJCBWbWm+CVM8PanmRls9FIw/YMDL03pARCQi/X1Ng9QCBI/oUBBSiKivoR1mX50RsajBIVQSm+CFFa0gCrIoVyfG7aQ+JC29Ipi+RQ1/bi+OBtgbzHLqv29RQV/5pSXgnM6XwU8jlMCNDPV/ra0ylZfKVYMOg9qd88PoPBFKfwe1nmeHapsBg0NITWd/aEKM1BYg8ICFP6REqusz8OAWnueUHmIpfRPRVJ4/kgKzxzQeu6atnRbyXWPIIRFPhXsmlHbEw7Up1R4Ir1PlX15QIWk/vVt0ueOM+uTUAh4lAoJ/fX0PJsO29mX9xYmgY95S9VEe+Lp6deHx+17y2txR8sal2hYXcSi9qJAlf9uT6PJ2f6i5YHLJfZSmXnJKFTuk8A3RssDl4RGFZKS0pOQmOffftE3UShK+vUUKmOVZ9s7rDZFcQl16zLmLwnXZb0gC8JB4r/vLa/F9vHh98StqZBZCoOlU+kZv+y2E/aHz0+/qFxhpo8n0ZxmahAyabhvX6lU+BD4gujNMbXCKntSCn+vTqNTnHqkDDOVZ1qDQrkCNGHgU8KsVfjeCXkzJIXnj6Tw/DGjRaMwaN3jDPE3KKyTwjPH6ShUzr3p4842ODClmzeYA+dxg0ygDp17AXaIUece/L1mMg/J+kJ3/bnI2vV+097y8dOqyqImndVbOfe4XNTg0wf++eM5i5mwoHPvFabkXLD9Sy/hrie0LSFKzpkYJ1v39oCXlL4+xiw4o3OPCiqEWEwIVsL/SgRnZMrIxWJBBJ2HNh2ac49xLX1clIKVgmtpg0zhQj5ueSXvCcgegStOTHBOiLxcdB+3uaRHFh3ZHZmwhqceDpBlMmQo9W1E/jRdh87Z3c49KLAQhgu9fInWvAjguMzUFSx0jeHiodAKHpJVoYI/ehF0kI3IZmnGTyAZWuGGlArGa0I/hSr0OPfg2dWstOu4Whwf3JYahmRVDwPJSt8wRj1IRl1iplMa2tQ4nXv/fKQM4tCP/+gdxHLNVaFbGx3L8iMlTrLsLfha9h17yV1kjexKxvojJhjykl4FFVGfc2+plpGWJh86cUgH3VgTIiALJxlDBJMx8vV2QB4kY3VBsZlgdB5SSg3nnj62gihQluiFdgvGXoOX/uqVcEc23hB75hZjkYthZLSft5GbN9DVhXzlKVfxQhT2zj0zHSJGoYhR6I/sUCgd3YbCKvsuX7PQ61VAJmrOvdxSKItHcB4yl0LnyDs2svbsWoWDxzGKjm3uP7mQXUiEQkkOVRgX2VRYOch++J17Tei5nY5iJB3zcIWOyMEKq55chbQ1fWg7HcKfjp1eamQ6hF2W8hGFYqweGjHmqh7O7chFaB5mmRHaftLCrXCQDrMe7lforYdRCuPqoa+2eMvSIA9FTB6KkZbGVoiPY6Awxqn2t+dh2JOOVRheD5veYpJ6uMvtthSG+WYeVnn78JBsPWkYuZsK812r0Iw8V22YrhCCbbVOy4gMUwlTIbT5h+RhcbvLrScNg1tipSOb1UVHNp40zLwIjB61dOSZUkiLrd3TwiCbm5HzxiLpyEMOz8PqLQ5UOBgfE5yhXJh3d0XhIl/QsiRD8q0ceTNHZGI+OxgRzxZF0w9ZZDk+WxrczjEao5C+fFvtdOPdmnJ41PROdy9sZ59/Ugd5doe1RdA7/d5u9flFKvz5eWVY+u4wMqfrrUmWkWs7GXcUd/KZyZitvv+m0XnIxCu91VezcEoMNYBstIknTJvkoJ4Rk3yN03icy19rNwV9pWqyvqG1dv++5DBvBL5GvqyLJnKth2jJpNaTAV8tJwsRCgsZuzH7NGg9UlCNuntFXdTN3cuWS+sakt+R5aX6BBjN2kUXWf5Di9x9Y110kbtEuMhN5MticYDCA6EtzBx7GY24Unoo3lNheEtzrnkYq9C0xtoVQPlli/Zh9DyJvh4iug8bDabfticrp60ZmQUkA+gsTqEspXRTXxrNIynlwrzWttWLetN4wgdtaVmLsi71hvC2bUsHkR3kum2lxevt7a1BJgLXOs0m9kW+f4jsD+/NXmu2xm+EXsu4ufp8r/rDIZk5yKo/dER2ke9Vf/jZ7GnXaiXKIn97OWQVY2csteFAjNhjmjzbtuNSm1w6yM2oLYzsjcx5OSBPNHsiRBB79Djr02HNAISwR96dQtf80IwMHzcjXntcutRHvO1HB82eCnudBgb1pTW3qMbmFqWcTOrj47xTaEduyM7Ig7kF49b8MG4lKst8bMe67SjZntRmXseQl+zKlm691CIfNgMOCv33KrSXXrIxhW7y0cnwIOVhIJnF5KGb/HYKnfPleUxL4yMXLoVjkQeJ9kY+XqHjDVE2koduslPhWOT/uZR6a8vb1cPjOi0PvHk4WC8dTYeb7FMYF9mTh1MoDA3tI/sVRtTwCRTKucXPwQt0tJPYb9u3aq1tSB57jx9E3l77HAJeO0GcQsbvbHuFMkGYd+8ax4Qkd849tFegW+XjMsC55yJjZHmEGCPSuNG79DAZRHox9OP21pIcuU7j8LdAHgb7aaSBaHBXzoAHFhk3mbgjl9Ii5ExG5Bwf5vTNCoVMVuNS4obNCSjKuyTJrIPA8T/jZeOfaqLozj02ToZS0XwDZxZZngTIzXPWuKLHr7Xp3ixUUdeE60KMo+iYsZAEchhvP1cfiLL7Ob6PzNEaJy/xH70DDIuzTlb3WkJkHhLOmfvMPXzCjHT3WJ826acjypsnT9AT8jNpPBNSEdN+DH19HrLMrOYpNo+SqRovj+Vj3fPElwf4FNhBediWyCFkHgz9n/IOJ6ZlVCiybSglMsIouf9A1VPOzELV/1iTE8e2NHrTwKUe666SLYYtBpJrm8wiyLV6HGMpii+lthlP7yIeMH28rk3CkmFCGH1YDsjw5QuLXBdRZPnu8sGdonlr84vLw0FXq+FKKqQfrNsfZG+ALk8d0qxKjiOXtVRokTWo4cGRc4sOOSjETHYkmuD40rJAXsn9zW4yM8m5j8wpVP0xc+UksycjHf+7QjGtwvGZCKaD+RQO0zGFwsV+hRPMnox0eBW+ax6+o0If2anQQQ7Iw/jZ0z6FzNU8NgoNe+CVWqMYkplSqJFzH7nEfjIpnLilYR6FLEYhcyi8ddXDAIUTrAgb6fgL8vDNFN66FYo3qYe5+0Q6HFvhOBfSYd4vUWENYyvj7idlYirVCz/jcTAkGwob8kK7hz/1QY7IQWGbAv3Tg31t0l/nUojpgDF2qSvMlEK0hXXpUPeBLHBaMFTI8XFc6W94NbKpsFSDWK/C/KBSavvrNHxXZsKNdRsSjRnw3S6lzEvmwyItyc5hOh8rpbeHrCZafgLNF/BEazk7NAmrAsfHjD7ZZJye08Ii07oh70LJ1IpsOhUOcO5Z/jptOlpsiJrsDmevuKawKRfaTSALuQphk+WMnWx4YUZ2kXErHXoZNu4E3Qr6ehs3P9Sce05opjrd+tNsqa0p7U/ao7jMLe9bR/CNk60vbBY+/EcA1pHrNOfq+krOvfPPw4Oce+3heZdFt3G6B7pX1c1A5177Yyquqr60i1zTzrnniqzCY2SZjMvOV4t/LeIUKueebcbDxWZo0nT78WXjryP1q9G6Oc14PnjIHxpP4DUVJpnIpX6T/MoOcO45zHjYnx/h3PPB49xT7+1+fx9EljvTj+8Pnc694Z6BdleEtWfAZcbzwk2ekdodmRNeTvGGVJnxjNAyD+29O4U1IFQDR9O5t1fhwLlXdZFFt7VXhVpS3L3f7lUxFUbnob13R5TEdu5pD68hd/46zbm35wsdzr2bqkv0bhBZc+71yZhm7xrx7aFz5SEb7gP2YN/eNTuyttO5T/NB7suj9pS/lcL5ZAqjds27dutqOyz3KxzdYelSONxhPE0p/aPy8HiFMXloO/fesB5WmsK8utHWIy7U/HaQDmdv0fnrAtvSuDMVrN2pchXjoNVE02Dty0NPf+g6NcKDY0+NgFTG9PjmqREBCiNOjfAq9NfDsFMjco+R0SmwP/njc2YrdO7l9o1pHKdGjCg85tSI/uSPl4CzTaAeqtNbYBRV6VFc+5H3KIzJQ1fkUIWQ6nl/ekvI4SZzuWmDDE7gIS5/XcwJPB6Mn8AzjMy5+wQeLk/gCfjdebjwjL/8wTxFSTn3On9dY7Lr/XV7nXu9Vc+69Nn8SHOKku7cm/cGwj4V8hQlNILhgmrIUVFVBXP0kuGudwMl+paGrjs5Tw0043ngsfm5I0vv2PAkLJg1FrQKOs+skqeZoTWmLHVbkjyMrPPXqSUVmG00J3KFOPdcbiYvmfM2sn30mYSeDOkTI9K6EnR0IpDwRDpcKqi1M+Kkc4+VQj83Do9ZUymCj1nLk8Dj6zp/3fiJeR1ZO+EPbXvdWXek7CMztQ2yMbK1EGjSCj+RDnDzL8UzBemkZ/+9KXDPWcSBpM3vdPY793xoi9N4sQy4tO7t+VZ8C4AnQ8YozLLnHy+B7cQp4P7Hc0hH0SvEX8+AJ7Qap+CdLJaPVzM8UzailN5Up/IbKAJRITDVCQkJCQkJCQkJCQkJCQkJCQkJCQkJCQkJCQkJCQkJCQkJCQmj+A/2O0vFoBo1wQAAAABJRU5ErkJggg==;" vertex="1" parent="1">
          <mxGeometry x="325" y="625.72" width="110" height="110" as="geometry" />
        </mxCell>
        <mxCell id="alSkmWKgk6mWW5NlKqTc-85" value="&lt;b&gt;keyboard&lt;/b&gt;" style="text;html=1;align=center;verticalAlign=middle;whiteSpace=wrap;rounded=0;" vertex="1" parent="1">
          <mxGeometry x="352.5" y="710" width="60" height="30" as="geometry" />
        </mxCell>
        <mxCell id="alSkmWKgk6mWW5NlKqTc-86" value="&lt;b&gt;Router &lt;/b&gt;" style="text;html=1;align=center;verticalAlign=middle;whiteSpace=wrap;rounded=0;" vertex="1" parent="1">
          <mxGeometry x="213.22" y="710" width="60" height="30" as="geometry" />
        </mxCell>
        <mxCell id="alSkmWKgk6mWW5NlKqTc-88" value="" style="endArrow=none;html=1;rounded=0;" edge="1" parent="1">
          <mxGeometry width="50" height="50" relative="1" as="geometry">
            <mxPoint x="271" y="770" as="sourcePoint" />
            <mxPoint x="270.52" y="740" as="targetPoint" />
          </mxGeometry>
        </mxCell>
        <mxCell id="alSkmWKgk6mWW5NlKqTc-89" value="" style="whiteSpace=wrap;html=1;aspect=fixed;" vertex="1" parent="1">
          <mxGeometry x="260" y="750" width="100" height="100" as="geometry" />
        </mxCell>
        <mxCell id="alSkmWKgk6mWW5NlKqTc-93" value="" style="shape=image;verticalLabelPosition=bottom;labelBackgroundColor=default;verticalAlign=top;aspect=fixed;imageAspect=0;image=https://encrypted-tbn0.gstatic.com/images?q=tbn:ANd9GcRNl_u6EJALImNbXW-ST_UBkM_JWPjq27QrMg&amp;s;" vertex="1" parent="1">
          <mxGeometry x="270" y="760.45" width="79.11" height="79.11" as="geometry" />
        </mxCell>
        <mxCell id="alSkmWKgk6mWW5NlKqTc-94" value="&lt;b&gt;Mouse&lt;/b&gt;" style="text;html=1;align=center;verticalAlign=middle;whiteSpace=wrap;rounded=0;" vertex="1" parent="1">
          <mxGeometry x="283.22" y="830" width="60" height="30" as="geometry" />
        </mxCell>
        <mxCell id="alSkmWKgk6mWW5NlKqTc-96" value="&lt;h1 style=&quot;margin-top: 0px;&quot;&gt;Multiple processor &lt;/h1&gt;&lt;div align=&quot;left&quot;&gt;&lt;font style=&quot;font-size: 17px;&quot;&gt;Multiple processor, adalah sistem komputer yang memiliki dua atau lebih unit pemrosesan (CPU) yang berbagi satu ruang alamat dan sumber daya seperti memori dan bus. Sistem ini memungkinkan pemrosesan tugas secara paralel, meningkatkan kinerja dan efisiensi komputasi&lt;/font&gt;&lt;/div&gt;" style="text;html=1;whiteSpace=wrap;overflow=hidden;rounded=0;" vertex="1" parent="1">
          <mxGeometry x="-90" y="870" width="543.73" height="180" as="geometry" />
        </mxCell>
        <mxCell id="alSkmWKgk6mWW5NlKqTc-98" value="" style="shape=image;verticalLabelPosition=bottom;labelBackgroundColor=default;verticalAlign=top;aspect=fixed;imageAspect=0;image=data:image/png,iVBORw0KGgoAAAANSUhEUgAAASwAAACoCAMAAABt9SM9AAABdFBMVEX///////3//f+fzf////uZm50AByRCYK2MiYzZ2tn9//9DZrNCZKswKi7p6OY5U5MAEztCaL0BGEIAAAArQXSSjo9vbXUPI0hCZ7c9Zcg5ZcNAZ8EQJk4xSYQxSoHh4OUmLDAYER8rJS338vWDfoMkJCgAABYvQ306OECiz/s7NkMAABAAAB2hzP9KSEkAEy10jaiixeQAGESp1P4UGyV7e3snOkkjIy+cnZkAFziqqKmEho3MycqZ0P/2//YfK04VGCkbGxt/lq+WvN5/oMJgXl84U5jDxsAAAC0OCjUrLy1CYJswT3QDFSQ/Y9YlQGIHHDg1TXsgIzpzcGh+f47o5do7W64jNmEVH1MZLGF/gnxeZG0tQYK/trh4cXMUEQ1CPTtTU1McJSF7iatbaYN2hpad0vSmy+IwOU0kMkRXUVc8UGlHWHFZd5yPrs8YJDgiNVNaZnmVqMHA2PdPWGghMD8FDgMLAAoTJRwAHzaLkojPzcHX/s/ZAAAMk0lEQVR4nO2cjVvayBaHJyFiEmgoIgpYiNuAmipINqXKl4qK9era0tptd9cFdddu0Vptdbu9u/efv+dMgiL4UVv6cG+YVxjyBe38njNnzplJhhAGg8FgMBgMBoPBYDAYDAaDwWAwGAwGg8FgMBgMBoPBYDAYDAaDwWD0AjJ98xyn5fo6R67Ac92uWeeRZYGTZZ4XHtcDY2736uqqe2zS/TVMbUyt/sv96RfNiWpZYklr93xeb/9LoN/b/xXA1+H76z+4892uWeehljXH87mNWDgciUTCX8uTJ1j6159O892uW8cBsYgwJ/NixRuO+L1erycUCnm+ghG/JzQSDnueTandrlvHkWUOxOL4/HB/BMxhfvjeFzGMWOXw/KtYKBKKOVMsXp4TSH7gZdg/+HyoNvSVbG5upqa9kZHYmDPFIoJARBDr5U8viAB92Bd3Y/Z31YWVcDjqRLE4DuIGgReHQ5H+70WBwt0a4Qye59UZECs26UCxBBALglKx4hnxDogcVLYwO4tx5ey1WLEn3cCicTinQHz741oMxVK6XbfOg5YFH8GKJ+L9Pk94/kX27sDd25JFKtPZ6VGJCCDWSCQWcKBY4KV4yHeCVjMkXGEstvLSiixvAcQc3nUgVilrRBmNRSKOtCzw7s1ikeDd9ZDf74GAC/B+bnSFob+//2U4PJ5QiJKIgmU50GddIpY39OzV8C259xPw869+fyyhgmVRsRxuWQMglghizT94Eadk4p/JL5l4Jr9V8XmfoVgJZ4vFnVmWeLfff/cF4Qn6ffn8Mt5+N/Z4Yr8QK3SQ6uMesCxeuQ9iRR0rFk+C2UYz/N7jz+YhpJAhbUTmZLgEYnwUBK+GUsZ93JSJHV1BbCsI6oNf/b5GM4yCz4KYy1nZNEakPDZDf9j2WVQsrCcPUZfG89WgpvFaWSUaCebghFKT4FxfHwgh1TR6ISQCIJvyYNwTtcSKOM+y0KQssXhohuEzB+/Oo8VwtOAEcUfhOClQANtaq0FcJm1XIWYvl+FcLqBYEbws87KsPPg1ZFkWxFnRjb5cA63bFe0IUq1M2SrvzL88F2saxeIwccSLxBRUFsUiZKcGbkwqVeFMuQwnq1bkCWbFo1gTZ5YFYj0MnFHtaiU7hbS7e0BfuzvzDcvKUrFkHD6VNRWIpyRVLQRyqqrd2VJgM5GD8qAMp/oCBSgV9Hs8B2INemINy4qNVQsNul3NDqEpmqJomqYEh/vP4yzwWQK6d2krkSglPn2CohQoWZtYlhIJuvnbX3B0ZmZ0lubP4ODHQ9GzZjjmMJ9FwT6uKc5qFiv1MX0TvwN7k+j3CYrlbxJLdeCMRVOc1RBrWkSxOKn02tTtPyyskn7SI3oSdpK6bhwPEdmyLL/jLetKsR4u6i7d5bKLM3TX+a7uKuqn+yhWm2X1jFgciEVUFMvlahYqmXTpSTAmV9LWSi8W/3jzqNbTlgViEUuspOtKkigdFStDMLrtVbGI8DguxjfS5tVSWWqBXi6jPhEURWWuN8XKxokQnNjZ2VgEsYo3qZU06zOpnQmpRy1rFUMHRSs0fNZVFIvUiRmPhmRIH3tCLI6/JM7iZAK9ITRD6s2TtAPUbXcPB3R6vFjEbhLFwsS7B5ohx2EuTUSM4Jt8Fg8OHsRqxAzomly2WMki7mG3aPeIxj4VS1Anxv2+pqC021XrPLZYwYFmseKEVwqF6sPFVgcPDQ/EAqWK9GWJaOyXpUJBm2sRyxljDedAYghgehgf9ly0rEygVILeULcVsqVCrSyxLM+PYkEzfFgqfVeYUy6ItVDL2PR1u5odgS9DdlxK3C/9lrg/32xZecKDreTAssAxWf2h3Qbhk7ZBKhb1YuCz9g8K7Za1AD+NJErlbtezM+SCgCgG/wkeXLCsPPosTHdMSxPTWDLQyGDDwKQQAWeGmw2fBY35omU5cioMELA3bGmGjdyQKpR++/Rw0dDNvcPDw720YZwuv0O9jvaOUDOjXrZ6Q8eLddYbtorFC7ZY5lF98u3hvvudYbiP6+8rU++NN3vzSyDW4uoy2Bu1LK29N3Ri6CDwl4rVl0qlNmjoYL5deG2Yxt4705j+89RYSlf23uy9N8ykuTi9DJk0WFZiN3Wg9kToYN9y1OKzcuVaGYNSMKypD6d6EZudkYUt3ai/Pd17v0TFAqcGYj26k6kNqa2hQw+JBUGpgg5eN9NTJwaKBS83iGWeHB+++bC/ZMKZaWyGYFk1QkcdnN8MOasZDrSKJaPPMotF88PxkalbpuX+0zg62XKnT7c+LhX108XsMvaH+n4NfVbPWFaLWPAp8zQ3LEIXeLykF1Er01h4OOUem3qnG2BZIKMllo5ikXaxesiyFFUp0KDU3MuiWEU0oel6Op0+gWMfjpeKLnTwNPqqlxVV7VnLyhNtKBAIbCzi7ETanbaaYVHPHp6appkEAStLetJ87aahg17fhosL8hViydf++/9XNMRqCR2IWq3mqIOHPvCpcWqeHqVNI7t3iiMzLjM9tgiH/oQGCqGDub/7uFptS6TVpttsHAINSrlLglI6RINigWm9PTl6Xa8YxjSGDtAkzZOpR4sn6alDK98Bn9U+RDOl8haaQwTTJEUBd6NIarwldMD7F2yxQK3K2OpY/cQ03HuYLBZN6Aj/dk+OvV2yUun6JgFJWhPp3bJNrdvV7AyZwPb29qdP23+VSvOeC+NZRNZssUCMU2P59+Ul6BmP0NXTMVPjaDG9bOjWWOl+TdA00ipWqoFDRh0KQYvZ4MFwyxBNX7m8ixMWdPDYQAtDk0J/nkwm0VGZSV2nIYXLrN8plw9aI/hJSbFx2ihg+6hDbihjpTsuGmPh20UDUzqabI0HWiPzEMHvYLpDfVa0edSBt+62dIjPIlck0vnmUYdmLu4XbSPb37xkwsKZQzSXhw7n41nXTIVRsXTjcrEcHMFfGjp8lljg4DdJ+/R9z4gVJ7yUy83SqbBroDOKNCit5nJar4oF6Q5EFaXJGyzLEgvTHQhACr0qlkhnyQoPb7gxBO+xoUM0ZU1Re9Zn5RsTFlZQqjdm7lu0ssTSsTckPNejluWmExZ0PEu/jj90vEFLpw6+7Wa2XhELHbxtWdeKZTdDtCy5Ryzr0htDBJlw6ugH4waWsDhZEFGsuYu3djsxKEW41nQHn7DAp5+2Pz66jv06ZSGlglgC5obnYsXGnJYbSlWLx9WhlkQaDY6XCyKQGo3nxUxgSIyLiYm8KA6VyvG4OAGb+a3JTD6fmVU4GVLAuYu54QI+apBYW1tLrHW7mp0hc/Z4zaf5drHsiy4+u8MT6U4V7ymp8QQfdLIeNrzkoYEp0RrREIPOuIuGKBKiwrvWYllW/Tkc6RRTCk/F4m2xSlU4Vy7D+VxApcMKHI4ft4rlQAePgBm1+yx8eg6f0JSDKU2WQSxZJqkMJNhS4jEcHRqC/WqAPm+Ia5W1OXhHToUJF2ekxQticSCLoqBkkty2yfGaZLdV+AUIHZqfCnOkWMIl0/fuvP2oYeOp3qblU9BBCfZ6Khye4PB5JnzLaFnOFuuyoHT4gyrhk4aq1Mz57sXjZ2erz6O9crfyuVj+p5Xjmc8lkUjQcmZm9Plz78iKo8XCbo+KFYp4KyjWtDfs9UV9USSGnz7c9iFReph++PBw4zLr2mdRX79/ZUblrLVoHJjucA2xBkJh798g1uyn9fCI/7bAN0Lw8np/nlBw4Z6IIxfuwfDAtqwn/bhEgfLvymD0C4jFsHjlzsvCj6PRcLgXxNL4HzdH79ya+/ZnKohRBYrlzFGHhlie8Do0Qw12lK8AQwlbLAeOOpyLFVn/+x9IXuiaFrddxo7INNqneSKKFXHkMnYQOlCxIN0J97/flaS28OoWWN9Ucws+py42JtOgNJgNPYn4shsbC8B3Xwb95oI7uzrvDY84WSwx6wmHR/p9sZjvS1ixyhVr2zsSjjxzYG9I1zdHy4LAPRIOR0ZGIvC+LRH4kt9Py5EIhGnhJ5HBgEMGSJvBPJiTSWHqB68fav1lYlH8VgEGCjHqyr16t2v2DbD6Mp5kJl8Ndobx8cHBp5WPTlmupxkqFiG81jdxvxOMUn4r/0dw4FI0llZ04TGtg8Cvdbli3xBcie5a6ArK+L7hOkLoLzlttb8WZKEj2L8jyw56VqAN7oaVzZtSm2t/BeeEBDp439H/3v8UHJ1V7Rzdrs+35OZUucV9XZ1uW6uT0tUoHQp139dyrsaNbgtaIC7y6mixOoM11yg728EzGAwGg8FgMBgMBoPBYDAYDAaDwWAwGAwGg8FgMBgMBoPBYDAYjB7ivwdpDjvk48HXAAAAAElFTkSuQmCC;" vertex="1" parent="1">
          <mxGeometry x="440" y="34.8" width="180" height="100.8" as="geometry" />
        </mxCell>
        <mxCell id="alSkmWKgk6mWW5NlKqTc-99" value="" style="shape=image;verticalLabelPosition=bottom;labelBackgroundColor=default;verticalAlign=top;aspect=fixed;imageAspect=0;image=data:image/png,iVBORw0KGgoAAAANSUhEUgAAASwAAACoCAMAAABt9SM9AAABdFBMVEX///////3//f+fzf////uZm50AByRCYK2MiYzZ2tn9//9DZrNCZKswKi7p6OY5U5MAEztCaL0BGEIAAAArQXSSjo9vbXUPI0hCZ7c9Zcg5ZcNAZ8EQJk4xSYQxSoHh4OUmLDAYER8rJS338vWDfoMkJCgAABYvQ306OECiz/s7NkMAABAAAB2hzP9KSEkAEy10jaiixeQAGESp1P4UGyV7e3snOkkjIy+cnZkAFziqqKmEho3MycqZ0P/2//YfK04VGCkbGxt/lq+WvN5/oMJgXl84U5jDxsAAAC0OCjUrLy1CYJswT3QDFSQ/Y9YlQGIHHDg1TXsgIzpzcGh+f47o5do7W64jNmEVH1MZLGF/gnxeZG0tQYK/trh4cXMUEQ1CPTtTU1McJSF7iatbaYN2hpad0vSmy+IwOU0kMkRXUVc8UGlHWHFZd5yPrs8YJDgiNVNaZnmVqMHA2PdPWGghMD8FDgMLAAoTJRwAHzaLkojPzcHX/s/ZAAAMk0lEQVR4nO2cjVvayBaHJyFiEmgoIgpYiNuAmipINqXKl4qK9era0tptd9cFdddu0Vptdbu9u/efv+dMgiL4UVv6cG+YVxjyBe38njNnzplJhhAGg8FgMBgMBoPBYDAYDAaDwWAwGAwGg8FgMBgMBoPBYDAYDAaDwWD0AjJ98xyn5fo6R67Ac92uWeeRZYGTZZ4XHtcDY2736uqqe2zS/TVMbUyt/sv96RfNiWpZYklr93xeb/9LoN/b/xXA1+H76z+4892uWeehljXH87mNWDgciUTCX8uTJ1j6159O892uW8cBsYgwJ/NixRuO+L1erycUCnm+ghG/JzQSDnueTandrlvHkWUOxOL4/HB/BMxhfvjeFzGMWOXw/KtYKBKKOVMsXp4TSH7gZdg/+HyoNvSVbG5upqa9kZHYmDPFIoJARBDr5U8viAB92Bd3Y/Z31YWVcDjqRLE4DuIGgReHQ5H+70WBwt0a4Qye59UZECs26UCxBBALglKx4hnxDogcVLYwO4tx5ey1WLEn3cCicTinQHz741oMxVK6XbfOg5YFH8GKJ+L9Pk94/kX27sDd25JFKtPZ6VGJCCDWSCQWcKBY4KV4yHeCVjMkXGEstvLSiixvAcQc3nUgVilrRBmNRSKOtCzw7s1ikeDd9ZDf74GAC/B+bnSFob+//2U4PJ5QiJKIgmU50GddIpY39OzV8C259xPw869+fyyhgmVRsRxuWQMglghizT94Eadk4p/JL5l4Jr9V8XmfoVgJZ4vFnVmWeLfff/cF4Qn6ffn8Mt5+N/Z4Yr8QK3SQ6uMesCxeuQ9iRR0rFk+C2UYz/N7jz+YhpJAhbUTmZLgEYnwUBK+GUsZ93JSJHV1BbCsI6oNf/b5GM4yCz4KYy1nZNEakPDZDf9j2WVQsrCcPUZfG89WgpvFaWSUaCebghFKT4FxfHwgh1TR6ISQCIJvyYNwTtcSKOM+y0KQssXhohuEzB+/Oo8VwtOAEcUfhOClQANtaq0FcJm1XIWYvl+FcLqBYEbws87KsPPg1ZFkWxFnRjb5cA63bFe0IUq1M2SrvzL88F2saxeIwccSLxBRUFsUiZKcGbkwqVeFMuQwnq1bkCWbFo1gTZ5YFYj0MnFHtaiU7hbS7e0BfuzvzDcvKUrFkHD6VNRWIpyRVLQRyqqrd2VJgM5GD8qAMp/oCBSgV9Hs8B2INemINy4qNVQsNul3NDqEpmqJomqYEh/vP4yzwWQK6d2krkSglPn2CohQoWZtYlhIJuvnbX3B0ZmZ0lubP4ODHQ9GzZjjmMJ9FwT6uKc5qFiv1MX0TvwN7k+j3CYrlbxJLdeCMRVOc1RBrWkSxOKn02tTtPyyskn7SI3oSdpK6bhwPEdmyLL/jLetKsR4u6i7d5bKLM3TX+a7uKuqn+yhWm2X1jFgciEVUFMvlahYqmXTpSTAmV9LWSi8W/3jzqNbTlgViEUuspOtKkigdFStDMLrtVbGI8DguxjfS5tVSWWqBXi6jPhEURWWuN8XKxokQnNjZ2VgEsYo3qZU06zOpnQmpRy1rFUMHRSs0fNZVFIvUiRmPhmRIH3tCLI6/JM7iZAK9ITRD6s2TtAPUbXcPB3R6vFjEbhLFwsS7B5ohx2EuTUSM4Jt8Fg8OHsRqxAzomly2WMki7mG3aPeIxj4VS1Anxv2+pqC021XrPLZYwYFmseKEVwqF6sPFVgcPDQ/EAqWK9GWJaOyXpUJBm2sRyxljDedAYghgehgf9ly0rEygVILeULcVsqVCrSyxLM+PYkEzfFgqfVeYUy6ItVDL2PR1u5odgS9DdlxK3C/9lrg/32xZecKDreTAssAxWf2h3Qbhk7ZBKhb1YuCz9g8K7Za1AD+NJErlbtezM+SCgCgG/wkeXLCsPPosTHdMSxPTWDLQyGDDwKQQAWeGmw2fBY35omU5cioMELA3bGmGjdyQKpR++/Rw0dDNvcPDw720YZwuv0O9jvaOUDOjXrZ6Q8eLddYbtorFC7ZY5lF98u3hvvudYbiP6+8rU++NN3vzSyDW4uoy2Bu1LK29N3Ri6CDwl4rVl0qlNmjoYL5deG2Yxt4705j+89RYSlf23uy9N8ykuTi9DJk0WFZiN3Wg9kToYN9y1OKzcuVaGYNSMKypD6d6EZudkYUt3ai/Pd17v0TFAqcGYj26k6kNqa2hQw+JBUGpgg5eN9NTJwaKBS83iGWeHB+++bC/ZMKZaWyGYFk1QkcdnN8MOasZDrSKJaPPMotF88PxkalbpuX+0zg62XKnT7c+LhX108XsMvaH+n4NfVbPWFaLWPAp8zQ3LEIXeLykF1Er01h4OOUem3qnG2BZIKMllo5ikXaxesiyFFUp0KDU3MuiWEU0oel6Op0+gWMfjpeKLnTwNPqqlxVV7VnLyhNtKBAIbCzi7ETanbaaYVHPHp6appkEAStLetJ87aahg17fhosL8hViydf++/9XNMRqCR2IWq3mqIOHPvCpcWqeHqVNI7t3iiMzLjM9tgiH/oQGCqGDub/7uFptS6TVpttsHAINSrlLglI6RINigWm9PTl6Xa8YxjSGDtAkzZOpR4sn6alDK98Bn9U+RDOl8haaQwTTJEUBd6NIarwldMD7F2yxQK3K2OpY/cQ03HuYLBZN6Aj/dk+OvV2yUun6JgFJWhPp3bJNrdvV7AyZwPb29qdP23+VSvOeC+NZRNZssUCMU2P59+Ul6BmP0NXTMVPjaDG9bOjWWOl+TdA00ipWqoFDRh0KQYvZ4MFwyxBNX7m8ixMWdPDYQAtDk0J/nkwm0VGZSV2nIYXLrN8plw9aI/hJSbFx2ihg+6hDbihjpTsuGmPh20UDUzqabI0HWiPzEMHvYLpDfVa0edSBt+62dIjPIlck0vnmUYdmLu4XbSPb37xkwsKZQzSXhw7n41nXTIVRsXTjcrEcHMFfGjp8lljg4DdJ+/R9z4gVJ7yUy83SqbBroDOKNCit5nJar4oF6Q5EFaXJGyzLEgvTHQhACr0qlkhnyQoPb7gxBO+xoUM0ZU1Re9Zn5RsTFlZQqjdm7lu0ssTSsTckPNejluWmExZ0PEu/jj90vEFLpw6+7Wa2XhELHbxtWdeKZTdDtCy5Ryzr0htDBJlw6ugH4waWsDhZEFGsuYu3djsxKEW41nQHn7DAp5+2Pz66jv06ZSGlglgC5obnYsXGnJYbSlWLx9WhlkQaDY6XCyKQGo3nxUxgSIyLiYm8KA6VyvG4OAGb+a3JTD6fmVU4GVLAuYu54QI+apBYW1tLrHW7mp0hc/Z4zaf5drHsiy4+u8MT6U4V7ymp8QQfdLIeNrzkoYEp0RrREIPOuIuGKBKiwrvWYllW/Tkc6RRTCk/F4m2xSlU4Vy7D+VxApcMKHI4ft4rlQAePgBm1+yx8eg6f0JSDKU2WQSxZJqkMJNhS4jEcHRqC/WqAPm+Ia5W1OXhHToUJF2ekxQticSCLoqBkkty2yfGaZLdV+AUIHZqfCnOkWMIl0/fuvP2oYeOp3qblU9BBCfZ6Khye4PB5JnzLaFnOFuuyoHT4gyrhk4aq1Mz57sXjZ2erz6O9crfyuVj+p5Xjmc8lkUjQcmZm9Plz78iKo8XCbo+KFYp4KyjWtDfs9UV9USSGnz7c9iFReph++PBw4zLr2mdRX79/ZUblrLVoHJjucA2xBkJh798g1uyn9fCI/7bAN0Lw8np/nlBw4Z6IIxfuwfDAtqwn/bhEgfLvymD0C4jFsHjlzsvCj6PRcLgXxNL4HzdH79ya+/ZnKohRBYrlzFGHhlie8Do0Qw12lK8AQwlbLAeOOpyLFVn/+x9IXuiaFrddxo7INNqneSKKFXHkMnYQOlCxIN0J97/flaS28OoWWN9Ucws+py42JtOgNJgNPYn4shsbC8B3Xwb95oI7uzrvDY84WSwx6wmHR/p9sZjvS1ixyhVr2zsSjjxzYG9I1zdHy4LAPRIOR0ZGIvC+LRH4kt9Py5EIhGnhJ5HBgEMGSJvBPJiTSWHqB68fav1lYlH8VgEGCjHqyr16t2v2DbD6Mp5kJl8Ndobx8cHBp5WPTlmupxkqFiG81jdxvxOMUn4r/0dw4FI0llZ04TGtg8Cvdbli3xBcie5a6ArK+L7hOkLoLzlttb8WZKEj2L8jyw56VqAN7oaVzZtSm2t/BeeEBDp439H/3v8UHJ1V7Rzdrs+35OZUucV9XZ1uW6uT0tUoHQp139dyrsaNbgtaIC7y6mixOoM11yg728EzGAwGg8FgMBgMBoPBYDAYDAaDwWAwGAwGg8FgMBgMBoPBYDAYjB7ivwdpDjvk48HXAAAAAElFTkSuQmCC;" vertex="1" parent="1">
          <mxGeometry x="580" y="30" width="196.43" height="110" as="geometry" />
        </mxCell>
        <mxCell id="alSkmWKgk6mWW5NlKqTc-100" value="" style="shape=image;verticalLabelPosition=bottom;labelBackgroundColor=default;verticalAlign=top;aspect=fixed;imageAspect=0;image=data:image/png,iVBORw0KGgoAAAANSUhEUgAAASwAAACoCAMAAABt9SM9AAABdFBMVEX///////3//f+fzf////uZm50AByRCYK2MiYzZ2tn9//9DZrNCZKswKi7p6OY5U5MAEztCaL0BGEIAAAArQXSSjo9vbXUPI0hCZ7c9Zcg5ZcNAZ8EQJk4xSYQxSoHh4OUmLDAYER8rJS338vWDfoMkJCgAABYvQ306OECiz/s7NkMAABAAAB2hzP9KSEkAEy10jaiixeQAGESp1P4UGyV7e3snOkkjIy+cnZkAFziqqKmEho3MycqZ0P/2//YfK04VGCkbGxt/lq+WvN5/oMJgXl84U5jDxsAAAC0OCjUrLy1CYJswT3QDFSQ/Y9YlQGIHHDg1TXsgIzpzcGh+f47o5do7W64jNmEVH1MZLGF/gnxeZG0tQYK/trh4cXMUEQ1CPTtTU1McJSF7iatbaYN2hpad0vSmy+IwOU0kMkRXUVc8UGlHWHFZd5yPrs8YJDgiNVNaZnmVqMHA2PdPWGghMD8FDgMLAAoTJRwAHzaLkojPzcHX/s/ZAAAMk0lEQVR4nO2cjVvayBaHJyFiEmgoIgpYiNuAmipINqXKl4qK9era0tptd9cFdddu0Vptdbu9u/efv+dMgiL4UVv6cG+YVxjyBe38njNnzplJhhAGg8FgMBgMBoPBYDAYDAaDwWAwGAwGg8FgMBgMBoPBYDAYDAaDwWD0AjJ98xyn5fo6R67Ac92uWeeRZYGTZZ4XHtcDY2736uqqe2zS/TVMbUyt/sv96RfNiWpZYklr93xeb/9LoN/b/xXA1+H76z+4892uWeehljXH87mNWDgciUTCX8uTJ1j6159O892uW8cBsYgwJ/NixRuO+L1erycUCnm+ghG/JzQSDnueTandrlvHkWUOxOL4/HB/BMxhfvjeFzGMWOXw/KtYKBKKOVMsXp4TSH7gZdg/+HyoNvSVbG5upqa9kZHYmDPFIoJARBDr5U8viAB92Bd3Y/Z31YWVcDjqRLE4DuIGgReHQ5H+70WBwt0a4Qye59UZECs26UCxBBALglKx4hnxDogcVLYwO4tx5ey1WLEn3cCicTinQHz741oMxVK6XbfOg5YFH8GKJ+L9Pk94/kX27sDd25JFKtPZ6VGJCCDWSCQWcKBY4KV4yHeCVjMkXGEstvLSiixvAcQc3nUgVilrRBmNRSKOtCzw7s1ikeDd9ZDf74GAC/B+bnSFob+//2U4PJ5QiJKIgmU50GddIpY39OzV8C259xPw869+fyyhgmVRsRxuWQMglghizT94Eadk4p/JL5l4Jr9V8XmfoVgJZ4vFnVmWeLfff/cF4Qn6ffn8Mt5+N/Z4Yr8QK3SQ6uMesCxeuQ9iRR0rFk+C2UYz/N7jz+YhpJAhbUTmZLgEYnwUBK+GUsZ93JSJHV1BbCsI6oNf/b5GM4yCz4KYy1nZNEakPDZDf9j2WVQsrCcPUZfG89WgpvFaWSUaCebghFKT4FxfHwgh1TR6ISQCIJvyYNwTtcSKOM+y0KQssXhohuEzB+/Oo8VwtOAEcUfhOClQANtaq0FcJm1XIWYvl+FcLqBYEbws87KsPPg1ZFkWxFnRjb5cA63bFe0IUq1M2SrvzL88F2saxeIwccSLxBRUFsUiZKcGbkwqVeFMuQwnq1bkCWbFo1gTZ5YFYj0MnFHtaiU7hbS7e0BfuzvzDcvKUrFkHD6VNRWIpyRVLQRyqqrd2VJgM5GD8qAMp/oCBSgV9Hs8B2INemINy4qNVQsNul3NDqEpmqJomqYEh/vP4yzwWQK6d2krkSglPn2CohQoWZtYlhIJuvnbX3B0ZmZ0lubP4ODHQ9GzZjjmMJ9FwT6uKc5qFiv1MX0TvwN7k+j3CYrlbxJLdeCMRVOc1RBrWkSxOKn02tTtPyyskn7SI3oSdpK6bhwPEdmyLL/jLetKsR4u6i7d5bKLM3TX+a7uKuqn+yhWm2X1jFgciEVUFMvlahYqmXTpSTAmV9LWSi8W/3jzqNbTlgViEUuspOtKkigdFStDMLrtVbGI8DguxjfS5tVSWWqBXi6jPhEURWWuN8XKxokQnNjZ2VgEsYo3qZU06zOpnQmpRy1rFUMHRSs0fNZVFIvUiRmPhmRIH3tCLI6/JM7iZAK9ITRD6s2TtAPUbXcPB3R6vFjEbhLFwsS7B5ohx2EuTUSM4Jt8Fg8OHsRqxAzomly2WMki7mG3aPeIxj4VS1Anxv2+pqC021XrPLZYwYFmseKEVwqF6sPFVgcPDQ/EAqWK9GWJaOyXpUJBm2sRyxljDedAYghgehgf9ly0rEygVILeULcVsqVCrSyxLM+PYkEzfFgqfVeYUy6ItVDL2PR1u5odgS9DdlxK3C/9lrg/32xZecKDreTAssAxWf2h3Qbhk7ZBKhb1YuCz9g8K7Za1AD+NJErlbtezM+SCgCgG/wkeXLCsPPosTHdMSxPTWDLQyGDDwKQQAWeGmw2fBY35omU5cioMELA3bGmGjdyQKpR++/Rw0dDNvcPDw720YZwuv0O9jvaOUDOjXrZ6Q8eLddYbtorFC7ZY5lF98u3hvvudYbiP6+8rU++NN3vzSyDW4uoy2Bu1LK29N3Ri6CDwl4rVl0qlNmjoYL5deG2Yxt4705j+89RYSlf23uy9N8ykuTi9DJk0WFZiN3Wg9kToYN9y1OKzcuVaGYNSMKypD6d6EZudkYUt3ai/Pd17v0TFAqcGYj26k6kNqa2hQw+JBUGpgg5eN9NTJwaKBS83iGWeHB+++bC/ZMKZaWyGYFk1QkcdnN8MOasZDrSKJaPPMotF88PxkalbpuX+0zg62XKnT7c+LhX108XsMvaH+n4NfVbPWFaLWPAp8zQ3LEIXeLykF1Er01h4OOUem3qnG2BZIKMllo5ikXaxesiyFFUp0KDU3MuiWEU0oel6Op0+gWMfjpeKLnTwNPqqlxVV7VnLyhNtKBAIbCzi7ETanbaaYVHPHp6appkEAStLetJ87aahg17fhosL8hViydf++/9XNMRqCR2IWq3mqIOHPvCpcWqeHqVNI7t3iiMzLjM9tgiH/oQGCqGDub/7uFptS6TVpttsHAINSrlLglI6RINigWm9PTl6Xa8YxjSGDtAkzZOpR4sn6alDK98Bn9U+RDOl8haaQwTTJEUBd6NIarwldMD7F2yxQK3K2OpY/cQ03HuYLBZN6Aj/dk+OvV2yUun6JgFJWhPp3bJNrdvV7AyZwPb29qdP23+VSvOeC+NZRNZssUCMU2P59+Ul6BmP0NXTMVPjaDG9bOjWWOl+TdA00ipWqoFDRh0KQYvZ4MFwyxBNX7m8ixMWdPDYQAtDk0J/nkwm0VGZSV2nIYXLrN8plw9aI/hJSbFx2ihg+6hDbihjpTsuGmPh20UDUzqabI0HWiPzEMHvYLpDfVa0edSBt+62dIjPIlck0vnmUYdmLu4XbSPb37xkwsKZQzSXhw7n41nXTIVRsXTjcrEcHMFfGjp8lljg4DdJ+/R9z4gVJ7yUy83SqbBroDOKNCit5nJar4oF6Q5EFaXJGyzLEgvTHQhACr0qlkhnyQoPb7gxBO+xoUM0ZU1Re9Zn5RsTFlZQqjdm7lu0ssTSsTckPNejluWmExZ0PEu/jj90vEFLpw6+7Wa2XhELHbxtWdeKZTdDtCy5Ryzr0htDBJlw6ugH4waWsDhZEFGsuYu3djsxKEW41nQHn7DAp5+2Pz66jv06ZSGlglgC5obnYsXGnJYbSlWLx9WhlkQaDY6XCyKQGo3nxUxgSIyLiYm8KA6VyvG4OAGb+a3JTD6fmVU4GVLAuYu54QI+apBYW1tLrHW7mp0hc/Z4zaf5drHsiy4+u8MT6U4V7ymp8QQfdLIeNrzkoYEp0RrREIPOuIuGKBKiwrvWYllW/Tkc6RRTCk/F4m2xSlU4Vy7D+VxApcMKHI4ft4rlQAePgBm1+yx8eg6f0JSDKU2WQSxZJqkMJNhS4jEcHRqC/WqAPm+Ia5W1OXhHToUJF2ekxQticSCLoqBkkty2yfGaZLdV+AUIHZqfCnOkWMIl0/fuvP2oYeOp3qblU9BBCfZ6Khye4PB5JnzLaFnOFuuyoHT4gyrhk4aq1Mz57sXjZ2erz6O9crfyuVj+p5Xjmc8lkUjQcmZm9Plz78iKo8XCbo+KFYp4KyjWtDfs9UV9USSGnz7c9iFReph++PBw4zLr2mdRX79/ZUblrLVoHJjucA2xBkJh798g1uyn9fCI/7bAN0Lw8np/nlBw4Z6IIxfuwfDAtqwn/bhEgfLvymD0C4jFsHjlzsvCj6PRcLgXxNL4HzdH79ya+/ZnKohRBYrlzFGHhlie8Do0Qw12lK8AQwlbLAeOOpyLFVn/+x9IXuiaFrddxo7INNqneSKKFXHkMnYQOlCxIN0J97/flaS28OoWWN9Ucws+py42JtOgNJgNPYn4shsbC8B3Xwb95oI7uzrvDY84WSwx6wmHR/p9sZjvS1ixyhVr2zsSjjxzYG9I1zdHy4LAPRIOR0ZGIvC+LRH4kt9Py5EIhGnhJ5HBgEMGSJvBPJiTSWHqB68fav1lYlH8VgEGCjHqyr16t2v2DbD6Mp5kJl8Ndobx8cHBp5WPTlmupxkqFiG81jdxvxOMUn4r/0dw4FI0llZ04TGtg8Cvdbli3xBcie5a6ArK+L7hOkLoLzlttb8WZKEj2L8jyw56VqAN7oaVzZtSm2t/BeeEBDp439H/3v8UHJ1V7Rzdrs+35OZUucV9XZ1uW6uT0tUoHQp139dyrsaNbgtaIC7y6mixOoM11yg728EzGAwGg8FgMBgMBoPBYDAYDAaDwWAwGAwGg8FgMBgMBoPBYDAYjB7ivwdpDjvk48HXAAAAAElFTkSuQmCC;" vertex="1" parent="1">
          <mxGeometry x="720" y="34.8" width="187.86" height="105.2" as="geometry" />
        </mxCell>
        <mxCell id="alSkmWKgk6mWW5NlKqTc-101" value="" style="endArrow=classic;html=1;rounded=0;" edge="1" parent="1">
          <mxGeometry width="50" height="50" relative="1" as="geometry">
            <mxPoint x="534.57" y="130" as="sourcePoint" />
            <mxPoint x="535" y="170" as="targetPoint" />
            <Array as="points">
              <mxPoint x="534.57" y="140" />
            </Array>
          </mxGeometry>
        </mxCell>
        <mxCell id="alSkmWKgk6mWW5NlKqTc-102" value="" style="endArrow=classic;html=1;rounded=0;" edge="1" parent="1">
          <mxGeometry width="50" height="50" relative="1" as="geometry">
            <mxPoint x="670" y="130" as="sourcePoint" />
            <mxPoint x="670.43" y="170" as="targetPoint" />
            <Array as="points">
              <mxPoint x="670" y="140" />
            </Array>
          </mxGeometry>
        </mxCell>
        <mxCell id="alSkmWKgk6mWW5NlKqTc-103" value="" style="endArrow=classic;html=1;rounded=0;" edge="1" parent="1">
          <mxGeometry width="50" height="50" relative="1" as="geometry">
            <mxPoint x="810" y="120" as="sourcePoint" />
            <mxPoint x="810" y="170" as="targetPoint" />
            <Array as="points">
              <mxPoint x="810" y="130" />
            </Array>
          </mxGeometry>
        </mxCell>
        <mxCell id="alSkmWKgk6mWW5NlKqTc-104" value="&lt;b&gt;processor 3&lt;/b&gt;" style="text;html=1;align=center;verticalAlign=middle;whiteSpace=wrap;rounded=0;" vertex="1" parent="1">
          <mxGeometry x="770" y="100" width="70" height="30" as="geometry" />
        </mxCell>
        <mxCell id="alSkmWKgk6mWW5NlKqTc-105" value="&lt;b&gt;processor 2&lt;/b&gt;" style="text;html=1;align=center;verticalAlign=middle;whiteSpace=wrap;rounded=0;" vertex="1" parent="1">
          <mxGeometry x="630" y="100" width="70" height="30" as="geometry" />
        </mxCell>
        <mxCell id="alSkmWKgk6mWW5NlKqTc-106" value="&lt;b&gt;processor 1&lt;/b&gt;" style="text;html=1;align=center;verticalAlign=middle;whiteSpace=wrap;rounded=0;" vertex="1" parent="1">
          <mxGeometry x="500" y="100" width="70" height="30" as="geometry" />
        </mxCell>
        <mxCell id="alSkmWKgk6mWW5NlKqTc-107" value="" style="whiteSpace=wrap;html=1;aspect=fixed;" vertex="1" parent="1">
          <mxGeometry x="480" y="170" width="120" height="120" as="geometry" />
        </mxCell>
        <mxCell id="alSkmWKgk6mWW5NlKqTc-108" value="&lt;font style=&quot;font-size: 23px;&quot;&gt;&lt;b&gt;L2 cache 1&lt;/b&gt;&lt;/font&gt;" style="text;html=1;align=center;verticalAlign=middle;whiteSpace=wrap;rounded=0;" vertex="1" parent="1">
          <mxGeometry x="485" y="205" width="100" height="30" as="geometry" />
        </mxCell>
        <mxCell id="alSkmWKgk6mWW5NlKqTc-109" value="" style="whiteSpace=wrap;html=1;aspect=fixed;" vertex="1" parent="1">
          <mxGeometry x="620" y="170" width="120" height="120" as="geometry" />
        </mxCell>
        <mxCell id="alSkmWKgk6mWW5NlKqTc-110" value="&lt;font style=&quot;font-size: 23px;&quot;&gt;&lt;b&gt;L2 cache 2&lt;/b&gt;&lt;/font&gt;" style="text;html=1;align=center;verticalAlign=middle;whiteSpace=wrap;rounded=0;" vertex="1" parent="1">
          <mxGeometry x="630" y="204.64" width="100" height="30" as="geometry" />
        </mxCell>
        <mxCell id="alSkmWKgk6mWW5NlKqTc-111" value="" style="whiteSpace=wrap;html=1;aspect=fixed;" vertex="1" parent="1">
          <mxGeometry x="760" y="170" width="120" height="120" as="geometry" />
        </mxCell>
        <mxCell id="alSkmWKgk6mWW5NlKqTc-112" value="&lt;font style=&quot;font-size: 23px;&quot;&gt;&lt;b&gt;L2 cache 3&lt;/b&gt;&lt;/font&gt;" style="text;html=1;align=center;verticalAlign=middle;whiteSpace=wrap;rounded=0;" vertex="1" parent="1">
          <mxGeometry x="770" y="205" width="100" height="30" as="geometry" />
        </mxCell>
        <mxCell id="alSkmWKgk6mWW5NlKqTc-114" value="" style="rounded=0;whiteSpace=wrap;html=1;" vertex="1" parent="1">
          <mxGeometry x="520" y="352.5" width="330" height="60" as="geometry" />
        </mxCell>
        <mxCell id="alSkmWKgk6mWW5NlKqTc-115" value="" style="endArrow=classic;html=1;rounded=0;" edge="1" parent="1">
          <mxGeometry width="50" height="50" relative="1" as="geometry">
            <mxPoint x="539.44" y="290" as="sourcePoint" />
            <mxPoint x="539.44" y="340" as="targetPoint" />
          </mxGeometry>
        </mxCell>
        <mxCell id="alSkmWKgk6mWW5NlKqTc-116" value="" style="endArrow=classic;html=1;rounded=0;" edge="1" parent="1">
          <mxGeometry width="50" height="50" relative="1" as="geometry">
            <mxPoint x="690" y="290" as="sourcePoint" />
            <mxPoint x="690" y="340" as="targetPoint" />
          </mxGeometry>
        </mxCell>
        <mxCell id="alSkmWKgk6mWW5NlKqTc-117" value="" style="endArrow=classic;html=1;rounded=0;" edge="1" parent="1">
          <mxGeometry width="50" height="50" relative="1" as="geometry">
            <mxPoint x="830" y="290" as="sourcePoint" />
            <mxPoint x="830" y="340" as="targetPoint" />
          </mxGeometry>
        </mxCell>
        <mxCell id="alSkmWKgk6mWW5NlKqTc-118" value="&lt;font style=&quot;font-size: 25px;&quot;&gt;&lt;b&gt;&lt;font&gt;Shared&amp;nbsp; bus&lt;/font&gt;&lt;/b&gt;&lt;/font&gt;" style="text;html=1;align=center;verticalAlign=middle;whiteSpace=wrap;rounded=0;" vertex="1" parent="1">
          <mxGeometry x="605" y="367.5" width="160" height="30" as="geometry" />
        </mxCell>
        <mxCell id="alSkmWKgk6mWW5NlKqTc-119" value="" style="endArrow=classic;html=1;rounded=0;" edge="1" parent="1">
          <mxGeometry width="50" height="50" relative="1" as="geometry">
            <mxPoint x="539.44" y="417.5" as="sourcePoint" />
            <mxPoint x="539.44" y="467.5" as="targetPoint" />
          </mxGeometry>
        </mxCell>
        <mxCell id="alSkmWKgk6mWW5NlKqTc-121" value="" style="whiteSpace=wrap;html=1;aspect=fixed;" vertex="1" parent="1">
          <mxGeometry x="470" y="470" width="140" height="140" as="geometry" />
        </mxCell>
        <mxCell id="alSkmWKgk6mWW5NlKqTc-123" value="" style="shape=image;verticalLabelPosition=bottom;labelBackgroundColor=default;verticalAlign=top;aspect=fixed;imageAspect=0;image=data:image/png,iVBORw0KGgoAAAANSUhEUgAAAOEAAADhCAMAAAAJbSJIAAAAb1BMVEX///8AAABAQEBGRkZiYmL5+fn8/PxxcXEwMDAnJyfKysr19fUhISHi4uKjo6N/f394eHhSUlKurq6YmJja2toICAjs7OzR0dGMjIy7u7sdHR06OjpsbGxUVFSxsbEWFhbDw8OcnJwtLS1cXFxubm6gWlZ/AAAErUlEQVR4nO2ca5eqIBSGw6ypnJzKzKaL1cz8/994YG8ERNc6Z9bRvPQ+n3YI5RMKCOpkAgAAAAAAAAAAAAAAAAAAAAAAAAAAAAAAAAAAAAAAAAAAAAAAfsM8svHfw5kJZ78qN/+PPfxPPk/phw73CxFqg2iaTg8czi/pMtM5julpp8PdKT3qMFumF21wkOW02CwUi73O8ZGePlsz+AszIblzHMgw4fBNhiGHsQwXHGYqM4sfVKjFFzKMOQxl+MZhIsMzh3eV2db+c1kLs3vRSYYbTt7KcMnhh8rB9bJT4YrClQq5PiMV6uNgKcMthxsZnric+pPE+gk2dbiG72XDLw5/ZfhVNnyH4ROAIQwnMFT0xXD2b4bcCWb/ZsidYB8Nr54h72nuGeZczjO8ctitYTItUOMYseA4VfvE4U2GKYfKW3CoBi/iTOHZKSdsOfUVN1sudcoF5jeT9gXpP+2QuHXDn44Nw9YN317CMA26IX2a4Vfrv1LP4mmGy26u1+YwbAYYtggMGwKGLQLDhoBhi8CwIWDYIjBsiJc1jA6WqKYYsUry6rb5Pqv5ww5ZdX6tU8M4dSYabuef2jVNNcWzPHiJ0VkWqNh8CjPJaOnScF2ZTrnllZK01lmsgRrUYqiYeom0hir2XmqXhquaKaONXzLgdK8SN5TozRFeKXHlfUHfDIU3eZvp5GM5eVPjnYt+Gh7XeyLbffMels+uS2FeLqwNv52kSPTUMPY+l2uLTq2wekRqQ+G0TZcBGFJbWNyFwfAijdrH91LRwjA133kXQzCcUO/h3Oqjl9F2XnVZQ9PIzk7DMLx6Zxwt6Ox5NW3rZjSGhRBV9q3/htOy4bxYHDyyqYUMqWq/qMqpyQ3i3htSXZ3sZzov7xM9Nrg4OclwHpqWiRYXs13vDWm/nT4/MA0Puay9nFGU6rpN+HztZx3uzMeIT66svJ3/gYwVDGzIlRxwFcvDtZ+G4SNhwrTUOEq+nbNSnaGpvcTQhtwJxlf9z/TT0GNr+4q1W29UWw+zrTCMTEGVcQiG7oCGOgAz8lT3IN7MtsKQzSXv6p/pv+HRHUlT9SyTo4Y6EtPrG0Nug/TZ20/D4BJKaP/Lw5ak5hgOio3WkNtTPpj7aajb0i0ZOJ063U1UoWhorSEdp0vnPqHeGer+kK/PnSx5naDZU8dw8hAL3VP22lBf6l7NRjVKSTdvlo0awhW9vmto6behvm2qaEzv7gcnSY94BmmoL2F1a0OdeHlyhsbhOm2YhnMaPvNxuFfRj5f/oRJ5HmeYhnp28bvIX5kXpB7yRoOegRg698QydKbRxYS6qjhXvsWOciiqPPfj3G9r6XTOW/bzt1JFJEWlxjWVwV0KXyWqo7gyu013VfvTxN0azvLYm+nNEu21evjHqOIQ57ri1o97zfYozis/grWnhoBhi8CwIWDYIjBsCBi2CAwbAoYtAsOGgGGLPNFw/M89jf/ZtS5p33D8z5CO/zng8T/L7TDW5/EtL/VOhfG/FwOGMFTAsANey3Cc72tz37mnxinje+fe+N+b+ALvvgQAAAAAAAAAAAAAAAAAAAAAAAAAAAAAAAAAAAAAAAAAAAAAGCR/AKbzWQi4D//uAAAAAElFTkSuQmCC;" vertex="1" parent="1">
          <mxGeometry x="476.25" y="476.25" width="127.5" height="127.5" as="geometry" />
        </mxCell>
        <mxCell id="alSkmWKgk6mWW5NlKqTc-124" value="&lt;font style=&quot;font-size: 15px;&quot;&gt;&lt;b&gt;Main memory&lt;/b&gt;&lt;/font&gt;" style="text;html=1;align=center;verticalAlign=middle;whiteSpace=wrap;rounded=0;" vertex="1" parent="1">
          <mxGeometry x="485" y="570" width="110" height="30" as="geometry" />
        </mxCell>
        <mxCell id="alSkmWKgk6mWW5NlKqTc-125" value="" style="whiteSpace=wrap;html=1;aspect=fixed;" vertex="1" parent="1">
          <mxGeometry x="750" y="467.86" width="144.28" height="144.28" as="geometry" />
        </mxCell>
        <mxCell id="alSkmWKgk6mWW5NlKqTc-126" value="" style="endArrow=classic;html=1;rounded=0;" edge="1" parent="1">
          <mxGeometry width="50" height="50" relative="1" as="geometry">
            <mxPoint x="830" y="412.5" as="sourcePoint" />
            <mxPoint x="830" y="462.5" as="targetPoint" />
          </mxGeometry>
        </mxCell>
        <mxCell id="alSkmWKgk6mWW5NlKqTc-127" value="" style="shape=image;verticalLabelPosition=bottom;labelBackgroundColor=default;verticalAlign=top;aspect=fixed;imageAspect=0;image=data:image/jpeg,/9j/4AAQSkZJRgABAQAAAQABAAD/2wCEAAkGBxMTEhUTExMWExUVFx0VFhcXGBUYFxoYFxcXFhcXFRcYIC0gGholGxcVITEiJSktLi4uGB81ODMtNygtLisBCgoKBQUFDgUFDisZExkrKysrKysrKysrKysrKysrKysrKysrKysrKysrKysrKysrKysrKysrKysrKysrKysrK//AABEIAOEA4QMBIgACEQEDEQH/xAAcAAEAAgMBAQEAAAAAAAAAAAAAAwcBAgYEBQj/xABTEAABAwIDAwUICg4JBQEAAAABAAIDBBEFEiEGBzETQVFh8BciVHGBkZPSCBYjNVJVkrHR0xQyMzZCc4KDlKGisrPBFSQ0cnSjtOHxGENTYsIl/8QAFAEBAAAAAAAAAAAAAAAAAAAAAP/EABQRAQAAAAAAAAAAAAAAAAAAAAD/2gAMAwEAAhEDEQA/ALxREQEREBERAREQEREBERAREQEREBERAREQEREBERAREQEREBERBrnWudajxjsbrPlCCRpWVpGVugIiICFFgoIw4rIf2061r5QhPPftr9KDfOjpFofHx+i3zIfGO2iDcOW6ivre4UqAiIgIiINHuK1zrMnjWvl4oNw9ZzqMHrHn60HjHbVBtn17da3abqLyjtf6VJGUGyIiAiIgIiIIzAFj7HClRBhrbCyyiICIsEoMouRxDeZhULzG+sZmGhyNkkAI5s0bSL+VebutYP4YPRVH1aDsxCFjkGrje61g/hg9FUfVp3WsH8MHoqj6tB2fIhYMAXG91rB/DB6Ko+rTutYP4YPRVH1aDs2QgG4Ui8GDYzBVR8rTysmZwuw3sehw4tPUdV70BERAREQavYDxWphCkRBGIQFjkApUQRfY4UjRbRZRAREQEREBERAREQEREBcXvirnw4RVPjcWuIYy44hskjGOt42lw8q7RcFvx95qn+9F/GjQchut3ZYfV4dDU1Eb5JJS8n3R7A0MkfGA0MI5mX15yV1vccwjwd3ppvWU25L3lpPzv+pmXcoOA7jmEeDu9NN6ydxzCPB3emm9Zd+SqM3rb1S/PRYe4kWImnZxIAOZsJH4Nr3f47aakOvg3SYK8EshLgCQS2eUi44g2dxHQpTucwjwd3ppvWXwvY30xFDUSG9n1GUdHeRs1HldbyK3EFD7qIDR4/WUUTnGECRtjxIjcDGT0uALhfrKvhUdsb99dZ+e+diu2onbG1z3uDGNF3OcQGgDiSToAgkRfC9umG/GFJ+kQ+snt0w34wpP0iH1kH3UXwvbphvxhSfpEPrJ7dMN+MKT9Ih9ZB91F8qg2lopniOGrp5Xng2OaN7j4mtN19VAREQEREBERAREQEREBERBhxstOUWz1HbqQSB64Tfg7/8AGqfHF/HjXcW8v/N1xe9+UMwuVzhcNfCTx5p49e3QgblwW4NSAix910Oh/tEx4LtnytAJJAAFySQAAOJJ5guM3ROvhVMc2fWbvtdR9kTW0Pm8irjfvtXU8oaJt4YRbOLODprgOBzcHRC9rDnGvQAm2926qMVn/ozCg50byWySNuOUHB2v4EI5z+F4tHerafYqHCMDqMp5Sqn5OKSa2tnSMLo4/gss09Z4nmA+1uYrMIjiEFJLmqni8plaWSvIFyGg6ZBrZrSbDU3Nyu82rqaSOlkdWiM04HfiQBzSQbtAaftnXAsBrdBWu5vbTDqfD4qaWpZDMHPc8SZmNu6R2XvyMp70N51bsEzXtD2ODmuAc1zSC0gi4II0II51+YMM2Z/pqveaKmFHStIDnd8Wsb0uubGV3wG2A06C4/pTAcJZSU8VNHcsiYGNLjdxA53HpJudNNUFO7G/fXWfnvnYu83wxZ8JqmXt9zJNibATxOOg46BcHsb99dZ+e+di7ze+bYTUnPyesff66Hl4rcOY8PKgqfY3YTCKmlZLPiPJykuzMEtPHYBzg0lkgLm3AB14r17bbrKGmw6SspaiaoLcmTvonscHSNY43Y3WwJ4HmUey+E4TLTslqcT5Gdwc2RrHxsabOc1r8jmE3tlN/wCS6/aGhpqfZ6RtJUmSEPY/ly8SFxNTHmu5gAJ0y2t4+dBzG7zdNR19BDVSzTsfJnu1hjDRkkewWzMJ4NHOujG4eg8IqvlQ/Vrm9ktrsTjpWMo6VzoA+QteaSplDg6RziWviOUkOLhbycyloN7WIzObFFFFLKQ42jp53kZXc8bXl1reZB9TFdwsOS9LVytkBuOVDXNPQLsALTe2uviXz4cE2shHJsmL2t0DjLTvuOp0vf28a+5uzwXF5Kw4hXzSxsIc0QOuM4IsPcTpExp1FwHXHDUk20g/OW0+PbSYe1j6qoMYe4tbb7FfcgXNw1p/Wv0JhsxfFG88Xsa424Xc0E286qT2Sn9npPxr/wBwLTYrfIA6OlxCD7HIDWCUZgwaANMrH980EW74EjXgBqgudaudZZa4EXGoOoWHoNeUWweo7dSzbt50EgcFhz1oAe3+/bRY8nz9HWglui1y9QWEEiIiDV7bhR8jpa6mRBByB6VxG+tuXCKg8bOiuOn3aNd8uC34+81T/ei/jRoM7mmF2D0pHeg8roOb+sTcF2FXhsUrCyZjJmH8GRoc3zOXJbkveWk/O/6mZdtK4hpIFyBcDpPMEH5twGvoqTHqqocBDT0hm5Njdczm+4NbGL6lxcSBwGvADT3U8FdtNV53kwUMTrafasHwWfDmItd3AA9Fgfm7B7sKqvqHSVjJKeFryZS9pZJI4m5awOHndwHWV+j8Lw6KniZDCxscbBZrW8AP5k8STqSghwLBoaSFkEDBHGzgBxJ53OPEuPOSvoIiCjtjfvrrPz3zsXb76RbB6px1+5ac1+Xitfp1suI2N++us/PfOxXDj+DRVlPJTTgujkADgDY6EOaQeYhwB8iChdiMFwSaiifW1Yin74OYZQ3KA8taQwg2JaGm/Wvv7Z4nhcGCzUlFVRSHMxzWCTM9x5ZjnHx2HmC+/wBw7C+mo9I31U7h2F9NR6RvqoPFur2uoYcMgjmq4YZAZCY3OALc00jm6eIg+Veukm2fjrTXMq6ds5uSRIMuZwyvcG/CcCb+MniSVt3DsL6aj0jfVTuHYX01HpG+qg+vi+9LC6ePOKlsx5mQ9+49XQPG4gLg5vZBd8ctBdt9C6ext1gRmx8q62g3L4VG8PLJZba5ZJCW36w0C/iOi7ykoY4mBkcbI2NFmta1rWgdAAFgg/Me8beO7FmQx/Y3ImN5cLSGQuLgG2tkCtveZsnHU4RyjmBs9LTiRr7d8BGwOkjd0gtDtOY2KsfIOgL4u3fvZXf4Sf8AgvQcvuIxh1RhbWvJJp5HQAnnYGtezzNeG/kqwntuFVHsb/e+f/En+FErZQQ8jpxWOQPSp0QQmHrWDCfhKdEEPIn4RRTIgIiICIiAuV3oYLJWYZUQRC8ha17B8IxvbJlHWQ0gdZC6pEH572D3tMw6jZRT0sjnQueLtcGnvpHPIe1wuHBznDyLou79TeCTfKjVm45hsL4pXPhjc7k3d85jSdGm2pF1Unsc6CKSGrMkTJLSR2zta63eu4XCD3d36m8Em+VGnd+pvBJvlRq0/wChKbwaH0cf0J/QlN4ND6OP6EFWd36m8Em+VGh3/U3gk3yo1ZeIYLTCKT+rw/aO/wC2z4J6lUfscqGKSOs5SNklnRWzta62knC40QNzdPPWYrVYq6Pk4nh9uJBfI4WY1xHfZWg3PTbpV5rWNgaAAAANABoB4gtkBERAREQEREBfD2797a7/AAk/8F6+4q23z7aw01HLSteH1FQwxZAbljHiz3yW+1GUkAHUk9ANg+f7HD3vn/xJ/hRK2VwG5HAX0uGN5QFr53mctPFocGtYPK1jXflLv0BERAREQEREBYJUdz27dHMsf7fOgmRaxrZAREQeTFvuEv4t37pVQ+xpcORrBfXPGbc9sr/oKughUhtBuhqqeWWowys5CMhzywvlie1o77I10QOdvG17c3Higu7Mshy/Pmy+F4pXmYwVjxHGWAiSqqmOzOjDrsLA7S3Tzr7cmwuORxvtXsdl1BdVVhOUBxN7N4+KwQW/iZtDKToOTd+6VT3safuVaf8A2i/dkXwtm8ExDFGSxtq3GnDGhzpaipLnco0m4aLtcLggtNlcGxOycWG03IRkuJOaR5Fi91gL8dBpYBB04KyoudSoC4jebvAjwuJoDRLUSg8lGb2AGhkkI4NB5uJPDgSO3VB4ZTjFNqJ+WGaOlc+zDqCKZwiYLfB5Qh9ue56UGKHZvaDFQJ5qp1NG/VrXPfGMp1BbDEOHQXWJHSvZ3G8S+NP2p/pV4ogo07ncS+NP2p/pTuO4l8aftT/Sruk7edalBSg3OYl8aftT/Svu7H7lqemkE1VKat7TmDS3LEDxu5pJLzfpNukFWd2/Ws3Pbt0fOgkvzLKh7fOpGINkREBERAREQQd90aeRYBd0BehEGkYPOt0RAREQF48Y+4Tfi3/ulexQ1cGeN7L2ztLb9GYEX/WgqH2OtuQq8uvujOOuuR3C4VrV2bk33GmR3R8Erk91Gw8uFwzMllZI6WQOGTNYNaLC+YDU34c3Wu2njzNc3hmBHnFkFM+xyFo6zLrrDe9uJbITbtzK4iXdAXFbqNhJcLZUNllZIZntIyB1g1gcATm5zmOnNbiV3qCBodfUAKdEQFQUlSMH2mkkm72CqLnF54BlQc5d4myix6gVfq5fb3YmDE4OTk7yRlzFKBdzCeII/CYbC7b8w4EXQdMx4IBBBBFwRqCDwIK2VCUmFbS4V7lT/wBZgH2obklZ+S11pGeIWGvOvT7bdqPAf8g+sgu6W/MtLO0sAqU9tu1HgP8AkH1lHNvC2ip+/noAYxq4mnlDQBxu9jrN8ZQXe0O5wNU77oH6lxm77ebTYl7nbkKgC/JOIIcBxMTtM3isCPELrukHnBd0BTRjTVbIgIiICIiAiIgIiICIiAiIgIoK6sjhYZJZGRMb9s97g1o5tXHQa2Xw6jbvDWtc77OpnZQTlbNESbC9gM2pKDo0VFH2QTvi8enP1ax/1BO8Ab6c/VoL2RUT/wBQT/AG+nP1auTZzFhV0sNSGlgmjbJlJvluNRfnsedB9JERAREQEREBCiIKM31bJCjfHilEORcJRygZYASG5ZM0cxJFnDgSRpqb27spi4q6OCpAA5WNriBwDrWe0eJwcPIuN3+4gyPCnRuPfTSsYwc/euEjj4gG/rHSvs7pKV0eEUbXcTGX+SR7pG/suCDr0REBERAREQEREBERAJWMyw9RhBMiiae3lKB58/8ANBX2/wA96X/jY/3lxWzu6Sjnwtla+WoEjoHSlrXRZMzQ4gAFl7aDnVh72gTQX4gSsJ6h3wuejUjzqtKLes2joWYf9imXLAY+V5UNac4PfNbkNxr08yDoPY2f2aq/HN/cVxWVFbgtoaSlp6ltRUxQl0rS0SPa0kBlri/EK1Pb3hnh9N6Vn0oOW9kD71fn4/8A7VZxT4/SYbHVNqDHRtYzk7OiJDHENYMtr8SF22+7aeiqMN5OCqhmfyzHZWSNc6wzXNgeGq5DD9j8drKCJjZWupJGNLI3SNAyghzQRa4sQEHW7K77aVlLE2tMz6gNIkcyNmUkOOU/bDXLlvoNbr6/dwwz4NTrw9yb669ux27Kkho4Y6ulp5agA8o/KHXJc5wGY8bAgeRfaGxGHC1qOAZb5e8Gl+OVBy7t+OGDQtqQfxbfXTu5YZ0VHo2+uuml2Hw1xu6igcbWuWA9PT5Vp7QcM8Ap/kNQc53csM6Kj0bfXQ78cM+DU+jb666P2g4Z4BT/ACG8y2OwmGkAGipyBewyDS5PDqQc0N+WF9FR6NvrqCv364e1t4oqiV1tG5WMF/8A2cXG3kBXXdz7C/Aaf5AUlNsLhrHBzaGnBGoJjabHpGYcUFPYThFbtHWNqqtpioozZoGYNyXuY4b6uc6wDn9XUAv0BFGGgNAAAFgBoABoAOpbNbYWGgCygLBKytXoM3WVCOCyD286CVYJUec+f/lL9vIUEqLS56kQboiINJDoos+nDhovQlkHmMnUVsX9SnRB5XSDnF/H9CjdQxSNLXRNykFpGUcCLEDRe6yIKsfuHw0knlasa8BJDYdQvFey17guHf8AnrPlwfVK1UQVUNw2G/8Amq/lw/VKysJw6OnhjgiBEcTAxoJubNFhc85XrRAUD3a8OxU6IPOZLcxQP6rc69CIPPyo6CsCQdBXpRBho0WURAREQFpKdFuiDz59OHUscp1FelEEBfbmWvKDoK9KIPPyw+CfMi9CICIiAiIgIiICIiAiIgIiICIiAiIgIiICIiAiIgIiICIiAiIgIiICLmonz/hcr5L9f87KRz5b6CW35d+I6fKg6FF8Br5baiW/N9t0dvMF9LCi/Kc+a+Y2zXvbS3FB7UREBEWCgyihBKyHntfrQSotOUWHPQSItA7mW6AiIgIiICKOQlYzdtUEqKMPWc6DdFHm17da3aUGUREBERAREQQnj2+EFIePkREBnAeJbIiAiIgLBREEZ4HxfyCc/brREB3A9vwVnmPbmCIgzz+RboiAiIgIiINHce3StH8/bmKyiDP0/wAytRxPb8IrKINnc/i+lbN4IiDKIiAiIgIiIP/Z;" vertex="1" parent="1">
          <mxGeometry x="754.28" y="470" width="140" height="140" as="geometry" />
        </mxCell>
        <mxCell id="alSkmWKgk6mWW5NlKqTc-128" value="&lt;b&gt;&lt;font style=&quot;font-size: 16px;&quot;&gt;Adapter &lt;/font&gt;&lt;/b&gt;" style="text;html=1;align=center;verticalAlign=middle;whiteSpace=wrap;rounded=0;" vertex="1" parent="1">
          <mxGeometry x="783.9300000000001" y="582.14" width="60" height="30" as="geometry" />
        </mxCell>
        <mxCell id="alSkmWKgk6mWW5NlKqTc-129" value="&lt;h1 style=&quot;margin-top: 0px;&quot;&gt;Multiprosesor Symmetric&lt;/h1&gt;&lt;font style=&quot;font-size: 17px;&quot;&gt;adalah sebuah arsitektur multiprosesor di mana beberapa prosesor identik berbagi memori utama dan memiliki akses ke semua perangkat input/output melalui bus I/O yang sama&lt;/font&gt;" style="text;html=1;whiteSpace=wrap;overflow=hidden;rounded=0;" vertex="1" parent="1">
          <mxGeometry x="530" y="665" width="470" height="165" as="geometry" />
        </mxCell>
      </root>
    </mxGraphModel>
  </diagram>
  <diagram id="SeugTNRy5BaCVS2_4qWq" name="Page-2">
    <mxGraphModel grid="1" page="1" gridSize="10" guides="1" tooltips="1" connect="1" arrows="1" fold="1" pageScale="1" pageWidth="850" pageHeight="1100" math="0" shadow="0">
      <root>
        <mxCell id="0" />
        <mxCell id="1" parent="0" />
      </root>
    </mxGraphModel>
  </diagram>
</mxfile>
